<?xml version="1.0" encoding="utf-8"?>
<!-- Generator: Adobe Illustrator 25.4.1, SVG Export Plug-In . SVG Version: 6.00 Build 0)  -->
<svg version="1.1" id="Capa_1" xmlns="http://www.w3.org/2000/svg" xmlns:xlink="http://www.w3.org/1999/xlink" x="0px" y="0px"
	 viewBox="0 0 100 100" style="enable-background:new 0 0 100 100;" xml:space="preserve">
<style type="text/css">
	.st0{fill:#CDCCE8;}
	.st1{fill:#424280;}
	.st2{fill:#FCC344;}
</style>
<g>
	<path class="st0" d="M1110.58,285.42c12.42-4.95,26.11-7.69,40.49-7.69c56.71,0,102.68,42.63,102.68,95.21
		c0,0.19-0.01,0.37-0.02,0.56c29.72,16.6,49.83,48.34,49.83,84.8v0c0,53.62-43.46,97.08-97.08,97.08h-166.16
		c-53.62,0-97.08-43.46-97.08-97.08v0c0-53.62,43.46-97.08,97.08-97.08h8.87C1049.2,361.22,1062.8,306.91,1110.58,285.42z"/>
	<path class="st1" d="M1209.06,595.09H1008.4c-71.88,0-130.37-58.48-130.37-130.37c0-71.88,58.48-130.37,130.37-130.37h10.71
		c7.25,0,13.13,5.88,13.13,13.13c0,7.25-5.88,13.13-13.13,13.13h-10.71c-57.41,0-104.11,46.7-104.11,104.11
		s46.71,104.11,104.11,104.11h200.66c57.41,0,104.11-46.71,104.11-104.11c0-37.69-20.48-72.54-53.44-90.95l-6.78-3.79l0.06-7.77
		c0-0.23,0.01-0.46,0.02-0.69c-0.07-56.11-49.78-101.74-110.88-101.74c-15.31,0-30.13,2.81-44.04,8.36
		c-6.73,2.69-14.37-0.6-17.05-7.33c-2.68-6.73,0.6-14.37,7.33-17.06c17.02-6.79,35.11-10.22,53.76-10.22
		c73.14,0,133.1,53.78,136.93,121.24c37.41,23.86,60.35,65.31,60.35,109.96C1339.42,536.61,1280.94,595.09,1209.06,595.09z"/>
	<path class="st1" d="M940.76,448.39c-2.19,0-4.4-0.55-6.44-1.7c-6.31-3.56-8.54-11.57-4.98-17.88
		c19.17-33.98,55.3-55.09,94.28-55.09h8.68c7.25,0,13.13,5.88,13.13,13.13c0,7.25-5.88,13.13-13.13,13.13h-8.68
		c-29.52,0-56.89,15.99-71.42,41.74C949.8,445.99,945.35,448.39,940.76,448.39z"/>
	<path class="st1" d="M981.04,470.2c-2.19,0-4.4-0.55-6.44-1.7c-6.31-3.56-8.54-11.57-4.98-17.88
		c11.25-19.94,32.45-32.32,55.32-32.32h4.6c7.25,0,13.13,5.88,13.13,13.13c0,7.25-5.88,13.13-13.13,13.13h-4.6
		c-13.42,0-25.85,7.27-32.45,18.97C990.08,467.79,985.63,470.2,981.04,470.2z"/>
</g>
<g>
	<path class="st0" d="M83.79,42.89c0-0.02,0-0.04,0-0.05c0-5.05-4.42-9.15-9.87-9.15c-1.38,0-2.7,0.26-3.89,0.74
		c-1.18,0.53-2.15,1.28-2.93,2.08c2.9,3.81,4.63,8.57,4.63,13.73c0,3.64-0.86,7.08-2.38,10.13h9.91c5.15,0,9.33-4.18,9.33-9.33v0
		C88.58,47.54,86.65,44.49,83.79,42.89z"/>
	<path class="st2" d="M49.02,24.69c-1.26,0-2.27-1.02-2.27-2.27v-4.73c0-1.26,1.02-2.27,2.27-2.27s2.27,1.02,2.27,2.27v4.73
		C51.3,23.67,50.28,24.69,49.02,24.69z"/>
	<path class="st2" d="M31.01,31.83c-0.89,0.89-2.33,0.89-3.22,0l-3.35-3.35c-0.89-0.89-0.89-2.33,0-3.22c0.89-0.89,2.33-0.89,3.22,0
		l3.35,3.35C31.9,29.5,31.9,30.94,31.01,31.83z"/>
	<path class="st2" d="M23.33,49.61c0,1.26-1.02,2.27-2.27,2.27h-4.73c-1.26,0-2.27-1.02-2.27-2.27s1.02-2.27,2.27-2.27h4.73
		C22.31,47.34,23.33,48.35,23.33,49.61z"/>
	<path class="st2" d="M48.25,75.31c1.26,0,2.27,1.02,2.27,2.27v4.73c0,1.26-1.02,2.27-2.27,2.27c-1.26,0-2.27-1.02-2.27-2.27v-4.73
		C45.97,76.33,46.99,75.31,48.25,75.31z"/>
	<path class="st2" d="M66.25,68.17c0.89-0.89,2.33-0.89,3.22,0l3.35,3.35c0.89,0.89,0.89,2.33,0,3.22c-0.89,0.89-2.33,0.89-3.22,0
		l-3.35-3.35C65.37,70.5,65.37,69.06,66.25,68.17z"/>
	<path class="st2" d="M73.94,50.39c0-1.26,1.02-2.27,2.27-2.27h4.73c1.26,0,2.27,1.02,2.27,2.27c0,1.26-1.02,2.27-2.27,2.27h-4.73
		C74.96,52.66,73.94,51.65,73.94,50.39z"/>
	<path class="st2" d="M66.8,32.38c-0.89-0.89-0.89-2.33,0-3.22l3.35-3.35c0.89-0.89,2.33-0.89,3.22,0c0.89,0.89,0.89,2.33,0,3.22
		l-3.35,3.35C69.13,33.27,67.69,33.27,66.8,32.38z"/>
	<path class="st0" d="M27.5,55.46c1.19-0.48,2.51-0.74,3.89-0.74c5.45,0,9.87,4.1,9.87,9.15c0,0.02,0,0.04,0,0.05
		c2.86,1.6,4.79,4.65,4.79,8.15v0c0,5.15-4.18,9.33-9.33,9.33H20.75c-5.15,0-9.33-4.18-9.33-9.33v0c0-5.15,4.18-9.33,9.33-9.33h0.85
		C21.6,62.74,22.91,57.52,27.5,55.46z"/>
	<path class="st2" d="M49.02,27.54c-12.54,0-22.71,10.17-22.71,22.71c0,1.89,0.23,3.72,0.67,5.47c0.17-0.09,0.34-0.17,0.52-0.25
		c1.19-0.48,2.51-0.74,3.89-0.74c5.45,0,9.87,4.1,9.87,9.15c0,0.02,0,0.04,0,0.05c2.86,1.6,4.79,4.65,4.79,8.15v0
		c0,0.23-0.02,0.45-0.03,0.67c0.99,0.13,1.99,0.2,3.01,0.2c12.54,0,22.71-10.17,22.71-22.71C71.73,37.7,61.56,27.54,49.02,27.54z"/>
</g>
</svg>
