<?xml version="1.0" encoding="utf-8"?>
<!-- Generator: Adobe Illustrator 25.4.1, SVG Export Plug-In . SVG Version: 6.00 Build 0)  -->
<svg version="1.1" id="Capa_1" xmlns="http://www.w3.org/2000/svg" xmlns:xlink="http://www.w3.org/1999/xlink" x="0px" y="0px"
	 viewBox="0 0 100 100" style="enable-background:new 0 0 100 100;" xml:space="preserve">
<style type="text/css">
	.st0{fill:#CDCCE8;}
	.st1{fill:#424280;}
	.st2{fill:#FCC344;}
</style>
<g>
	<path class="st0" d="M1110.58,285.42c12.42-4.95,26.11-7.69,40.49-7.69c56.71,0,102.68,42.63,102.68,95.21
		c0,0.19-0.01,0.37-0.02,0.56c29.72,16.6,49.83,48.34,49.83,84.8v0c0,53.62-43.46,97.08-97.08,97.08h-166.16
		c-53.62,0-97.08-43.46-97.08-97.08v0c0-53.62,43.46-97.08,97.08-97.08h8.87C1049.2,361.22,1062.8,306.91,1110.58,285.42z"/>
	<path class="st1" d="M1209.06,595.09H1008.4c-71.88,0-130.37-58.48-130.37-130.37c0-71.88,58.48-130.37,130.37-130.37h10.71
		c7.25,0,13.13,5.88,13.13,13.13c0,7.25-5.88,13.13-13.13,13.13h-10.71c-57.41,0-104.11,46.7-104.11,104.11
		s46.71,104.11,104.11,104.11h200.66c57.41,0,104.11-46.71,104.11-104.11c0-37.69-20.48-72.54-53.44-90.95l-6.78-3.79l0.06-7.77
		c0-0.23,0.01-0.46,0.02-0.69c-0.07-56.11-49.78-101.74-110.88-101.74c-15.31,0-30.13,2.81-44.04,8.36
		c-6.73,2.69-14.37-0.6-17.05-7.33c-2.68-6.73,0.6-14.37,7.33-17.06c17.02-6.79,35.11-10.22,53.76-10.22
		c73.14,0,133.1,53.78,136.93,121.24c37.41,23.86,60.35,65.31,60.35,109.96C1339.42,536.61,1280.94,595.09,1209.06,595.09z"/>
	<path class="st1" d="M940.76,448.39c-2.19,0-4.4-0.55-6.44-1.7c-6.31-3.56-8.54-11.57-4.98-17.88
		c19.17-33.98,55.3-55.09,94.28-55.09h8.68c7.25,0,13.13,5.88,13.13,13.13c0,7.25-5.88,13.13-13.13,13.13h-8.68
		c-29.52,0-56.89,15.99-71.42,41.74C949.8,445.99,945.35,448.39,940.76,448.39z"/>
	<path class="st1" d="M981.04,470.2c-2.19,0-4.4-0.55-6.44-1.7c-6.31-3.56-8.54-11.57-4.98-17.88
		c11.25-19.94,32.45-32.32,55.32-32.32h4.6c7.25,0,13.13,5.88,13.13,13.13c0,7.25-5.88,13.13-13.13,13.13h-4.6
		c-13.42,0-25.85,7.27-32.45,18.97C990.08,467.79,985.63,470.2,981.04,470.2z"/>
</g>
<g>
	<path class="st1" d="M57.87,85.28H26.42c-11.07,0-20.07-9-20.07-20.07s9-20.07,20.07-20.07h1.68c0.94,0,1.7,0.76,1.7,1.7
		c0,0.94-0.76,1.7-1.7,1.7h-1.68c-9.2,0-16.68,7.48-16.68,16.68c0,9.2,7.48,16.68,16.68,16.68h31.45c9.2,0,16.68-7.48,16.68-16.68
		c0-6.04-3.28-11.62-8.56-14.57l-0.88-0.49l0.01-1c0-0.04,0-0.07,0-0.11l0,0.01c0-9-7.96-16.33-17.74-16.33
		c-2.45,0-4.81,0.45-7.04,1.34c-0.87,0.35-1.86-0.08-2.2-0.95c-0.35-0.87,0.08-1.86,0.95-2.2c2.63-1.05,5.42-1.58,8.29-1.58
		c11.34,0,20.62,8.38,21.11,18.85c5.85,3.66,9.45,10.09,9.45,17.03C77.94,76.27,68.93,85.28,57.87,85.28z"/>
	<path class="st2" d="M68.36,23.39c-5.77,0-10.9,2.75-14.15,7.01c8.03,2.57,13.89,9.52,14.27,17.78c3.47,2.17,6.15,5.32,7.75,8.97
		c5.88-2.91,9.92-8.96,9.92-15.96C86.16,31.35,78.2,23.39,68.36,23.39z"/>
	<path class="st0" d="M41.94,36.75c1.95-0.78,4.09-1.21,6.35-1.21c8.89,0,16.09,6.68,16.09,14.92c0,0.03,0,0.06,0,0.09
		c4.66,2.6,7.81,7.58,7.81,13.29v0c0,8.4-6.81,15.22-15.22,15.22H30.93c-8.4,0-15.22-6.81-15.22-15.22v0
		c0-8.4,6.81-15.22,15.22-15.22h1.39C32.32,48.63,34.45,40.12,41.94,36.75z"/>
	<path class="st1" d="M15.82,62.28c-0.28,0-0.57-0.07-0.83-0.22c-0.82-0.46-1.1-1.49-0.64-2.31c2.94-5.21,8.48-8.45,14.46-8.45h1.36
		c0.94,0,1.7,0.76,1.7,1.7c0,0.94-0.76,1.7-1.7,1.7H28.8c-4.76,0-9.17,2.58-11.51,6.73C16.98,61.97,16.41,62.28,15.82,62.28z"/>
	<path class="st1" d="M22.13,65.7c-0.28,0-0.57-0.07-0.83-0.22c-0.82-0.46-1.1-1.49-0.64-2.31c1.7-3.01,4.9-4.88,8.36-4.88h0.72
		c0.94,0,1.7,0.76,1.7,1.7c0,0.94-0.76,1.7-1.7,1.7h-0.72c-2.23,0-4.3,1.21-5.4,3.16C23.3,65.39,22.72,65.7,22.13,65.7z"/>
	<path class="st2" d="M67.85,21.64c-0.94,0-1.7-0.76-1.7-1.7v-3.53c0-0.94,0.76-1.7,1.7-1.7s1.7,0.76,1.7,1.7v3.53
		C69.55,20.88,68.79,21.64,67.85,21.64z"/>
	<path class="st2" d="M53.4,28.03c-0.43,0-0.87-0.17-1.2-0.5l-2.49-2.49c-0.66-0.66-0.66-1.74,0-2.4c0.66-0.66,1.74-0.66,2.4,0
		l2.49,2.49c0.66,0.66,0.66,1.74,0,2.4C54.27,27.87,53.84,28.03,53.4,28.03z"/>
	<path class="st2" d="M85.77,59.02c-0.43,0-0.87-0.17-1.2-0.5l-2.49-2.49c-0.66-0.66-0.66-1.74,0-2.4c0.66-0.66,1.74-0.66,2.4,0
		l2.49,2.49c0.66,0.66,0.66,1.74,0,2.4C86.64,58.85,86.2,59.02,85.77,59.02z"/>
	<path class="st2" d="M92.5,41.79h-3.53c-0.94,0-1.7-0.76-1.7-1.7c0-0.94,0.76-1.7,1.7-1.7h3.53c0.94,0,1.7,0.76,1.7,1.7
		C94.2,41.03,93.44,41.79,92.5,41.79z"/>
	<path class="st2" d="M82.58,27.34c-0.43,0-0.87-0.17-1.2-0.5c-0.66-0.66-0.66-1.74,0-2.4l2.49-2.49c0.66-0.66,1.74-0.66,2.4,0
		c0.66,0.66,0.66,1.74,0,2.4l-2.49,2.49C83.45,27.18,83.02,27.34,82.58,27.34z"/>
</g>
</svg>
