<?xml version="1.0" encoding="utf-8"?>
<!-- Generator: Adobe Illustrator 25.4.1, SVG Export Plug-In . SVG Version: 6.00 Build 0)  -->
<svg version="1.1" id="Capa_1" xmlns="http://www.w3.org/2000/svg" xmlns:xlink="http://www.w3.org/1999/xlink" x="0px" y="0px"
	 viewBox="0 0 100 100" style="enable-background:new 0 0 100 100;" xml:space="preserve">
<style type="text/css">
	.st0{fill:#CDCCE8;}
	.st1{fill:#424280;}
</style>
<g>
	<path class="st0" d="M1110.58,285.42c12.42-4.95,26.11-7.69,40.49-7.69c56.71,0,102.68,42.63,102.68,95.21
		c0,0.19-0.01,0.37-0.02,0.56c29.72,16.6,49.83,48.34,49.83,84.8v0c0,53.62-43.46,97.08-97.08,97.08h-166.16
		c-53.62,0-97.08-43.46-97.08-97.08v0c0-53.62,43.46-97.08,97.08-97.08h8.87C1049.2,361.22,1062.8,306.91,1110.58,285.42z"/>
	<path class="st1" d="M1209.06,595.09H1008.4c-71.88,0-130.37-58.48-130.37-130.37c0-71.88,58.48-130.37,130.37-130.37h10.71
		c7.25,0,13.13,5.88,13.13,13.13c0,7.25-5.88,13.13-13.13,13.13h-10.71c-57.41,0-104.11,46.7-104.11,104.11
		s46.71,104.11,104.11,104.11h200.66c57.41,0,104.11-46.71,104.11-104.11c0-37.69-20.48-72.54-53.44-90.95l-6.78-3.79l0.06-7.77
		c0-0.23,0.01-0.46,0.02-0.69c-0.07-56.11-49.78-101.74-110.88-101.74c-15.31,0-30.13,2.81-44.04,8.36
		c-6.73,2.69-14.37-0.6-17.05-7.33c-2.68-6.73,0.6-14.37,7.33-17.06c17.02-6.79,35.11-10.22,53.76-10.22
		c73.14,0,133.1,53.78,136.93,121.24c37.41,23.86,60.35,65.31,60.35,109.96C1339.42,536.61,1280.94,595.09,1209.06,595.09z"/>
	<path class="st1" d="M940.76,448.39c-2.19,0-4.4-0.55-6.44-1.7c-6.31-3.56-8.54-11.57-4.98-17.88
		c19.17-33.98,55.3-55.09,94.28-55.09h8.68c7.25,0,13.13,5.88,13.13,13.13c0,7.25-5.88,13.13-13.13,13.13h-8.68
		c-29.52,0-56.89,15.99-71.42,41.74C949.8,445.99,945.35,448.39,940.76,448.39z"/>
	<path class="st1" d="M981.04,470.2c-2.19,0-4.4-0.55-6.44-1.7c-6.31-3.56-8.54-11.57-4.98-17.88
		c11.25-19.94,32.45-32.32,55.32-32.32h4.6c7.25,0,13.13,5.88,13.13,13.13c0,7.25-5.88,13.13-13.13,13.13h-4.6
		c-13.42,0-25.85,7.27-32.45,18.97C990.08,467.79,985.63,470.2,981.04,470.2z"/>
</g>
<g>
	<path class="st0" d="M50.36,24.73c2.44-0.97,5.12-1.51,7.94-1.51c11.12,0,20.13,8.36,20.13,18.67c0,0.04,0,0.07,0,0.11
		c5.83,3.25,9.77,9.48,9.77,16.62v0c0,10.51-8.52,19.03-19.03,19.03H36.59c-10.51,0-19.03-8.52-19.03-19.03v0
		c0-10.51,8.52-19.03,19.03-19.03h1.74C38.33,39.59,41,28.95,50.36,24.73z"/>
	<path class="st1" d="M69.67,85.44H30.33c-14.09,0-25.56-11.47-25.56-25.56c0-14.09,11.47-25.56,25.56-25.56h2.1
		c1.42,0,2.57,1.15,2.57,2.57s-1.15,2.57-2.57,2.57h-2.1c-11.25,0-20.41,9.16-20.41,20.41s9.16,20.41,20.41,20.41h39.34
		c11.25,0,20.41-9.16,20.41-20.41c0-7.39-4.01-14.22-10.48-17.83l-1.33-0.74l0.01-1.52c0-0.05,0-0.09,0-0.14
		c-0.01-11-9.76-19.95-21.74-19.95c-3,0-5.91,0.55-8.63,1.64c-1.32,0.53-2.82-0.12-3.34-1.44c-0.53-1.32,0.12-2.82,1.44-3.34
		c3.34-1.33,6.88-2,10.54-2c14.34,0,26.09,10.54,26.84,23.77c7.33,4.68,11.83,12.8,11.83,21.56C95.23,73.98,83.76,85.44,69.67,85.44
		z"/>
	<path class="st1" d="M17.07,56.68c-0.43,0-0.86-0.11-1.26-0.33c-1.24-0.7-1.68-2.27-0.98-3.51c3.76-6.66,10.84-10.8,18.48-10.8h1.7
		c1.42,0,2.57,1.15,2.57,2.57c0,1.42-1.15,2.57-2.57,2.57h-1.7c-5.79,0-11.15,3.14-14,8.18C18.84,56.21,17.97,56.68,17.07,56.68z"/>
	<path class="st1" d="M24.97,60.96c-0.43,0-0.86-0.11-1.26-0.33c-1.24-0.7-1.68-2.27-0.98-3.51c2.21-3.91,6.36-6.34,10.85-6.34h0.9
		c1.42,0,2.57,1.15,2.57,2.57c0,1.42-1.15,2.57-2.57,2.57h-0.9c-2.63,0-5.07,1.43-6.36,3.72C26.74,60.49,25.87,60.96,24.97,60.96z"
		/>
</g>
</svg>
