<?xml version="1.0" encoding="utf-8"?>
<!-- Generator: Adobe Illustrator 25.4.1, SVG Export Plug-In . SVG Version: 6.00 Build 0)  -->
<svg version="1.1" id="Capa_1" xmlns="http://www.w3.org/2000/svg" xmlns:xlink="http://www.w3.org/1999/xlink" x="0px" y="0px"
	 viewBox="0 0 100 100" style="enable-background:new 0 0 100 100;" xml:space="preserve">
<style type="text/css">
	.st0{fill:#CDCCE8;}
	.st1{fill:#424280;}
	.st2{fill:#6E6EB1;}
</style>
<g>
	<path class="st0" d="M1110.58,285.42c12.42-4.95,26.11-7.69,40.49-7.69c56.71,0,102.68,42.63,102.68,95.21
		c0,0.19-0.01,0.37-0.02,0.56c29.72,16.6,49.83,48.34,49.83,84.8v0c0,53.62-43.46,97.08-97.08,97.08h-166.16
		c-53.62,0-97.08-43.46-97.08-97.08v0c0-53.62,43.46-97.08,97.08-97.08h8.87C1049.2,361.22,1062.8,306.91,1110.58,285.42z"/>
	<path class="st1" d="M1209.06,595.09H1008.4c-71.88,0-130.37-58.48-130.37-130.37c0-71.88,58.48-130.37,130.37-130.37h10.71
		c7.25,0,13.13,5.88,13.13,13.13c0,7.25-5.88,13.13-13.13,13.13h-10.71c-57.41,0-104.11,46.7-104.11,104.11
		s46.71,104.11,104.11,104.11h200.66c57.41,0,104.11-46.71,104.11-104.11c0-37.69-20.48-72.54-53.44-90.95l-6.78-3.79l0.06-7.77
		c0-0.23,0.01-0.46,0.02-0.69c-0.07-56.11-49.78-101.74-110.88-101.74c-15.31,0-30.13,2.81-44.04,8.36
		c-6.73,2.69-14.37-0.6-17.05-7.33c-2.68-6.73,0.6-14.37,7.33-17.06c17.02-6.79,35.11-10.22,53.76-10.22
		c73.14,0,133.1,53.78,136.93,121.24c37.41,23.86,60.35,65.31,60.35,109.96C1339.42,536.61,1280.94,595.09,1209.06,595.09z"/>
	<path class="st1" d="M940.76,448.39c-2.19,0-4.4-0.55-6.44-1.7c-6.31-3.56-8.54-11.57-4.98-17.88
		c19.17-33.98,55.3-55.09,94.28-55.09h8.68c7.25,0,13.13,5.88,13.13,13.13c0,7.25-5.88,13.13-13.13,13.13h-8.68
		c-29.52,0-56.89,15.99-71.42,41.74C949.8,445.99,945.35,448.39,940.76,448.39z"/>
	<path class="st1" d="M981.04,470.2c-2.19,0-4.4-0.55-6.44-1.7c-6.31-3.56-8.54-11.57-4.98-17.88
		c11.25-19.94,32.45-32.32,55.32-32.32h4.6c7.25,0,13.13,5.88,13.13,13.13c0,7.25-5.88,13.13-13.13,13.13h-4.6
		c-13.42,0-25.85,7.27-32.45,18.97C990.08,467.79,985.63,470.2,981.04,470.2z"/>
</g>
<g>
	<path class="st2" d="M57.5,14.79c2.27-0.91,4.78-1.41,7.41-1.41c10.38,0,18.8,7.8,18.8,17.43c0,0.03,0,0.07,0,0.1
		c5.44,3.04,9.12,8.85,9.12,15.53v0c0,9.82-7.96,17.77-17.77,17.77H44.64c-9.82,0-17.77-7.96-17.77-17.77v0
		c0-9.82,7.96-17.77,17.77-17.77h1.62C46.26,28.66,48.75,18.72,57.5,14.79z"/>
	<path class="st1" d="M27.53,51.27h-5.68c-6.06,0-10.99-4.93-10.99-10.99c0-6.06,4.93-10.99,10.99-10.99h2.62l0.35-1.4
		c0.02-0.06,1.64-6.31,7.05-8.77c1.46-0.58,3.02-0.87,4.63-0.87c5.05,0,9.37,2.94,11.02,7.05c0.52-1.14,1.23-2.46,2.16-3.81
		c-2.71-4.16-7.6-6.94-13.18-6.94c-2.09,0-4.13,0.39-6.04,1.15l-0.07,0.03c-5.33,2.4-7.78,7.41-8.7,9.86
		c-8.02,0.09-14.52,6.64-14.52,14.69c0,8.1,6.59,14.69,14.69,14.69h7.19C28.41,53.81,27.9,52.57,27.53,51.27z"/>
	<path class="st1" d="M35.71,72.68c-0.47,0-0.95-0.18-1.31-0.54c-0.72-0.72-0.72-1.89,0-2.62l3.65-3.65c0.72-0.72,1.89-0.72,2.62,0
		c0.72,0.72,0.72,1.89,0,2.62l-3.65,3.65C36.65,72.5,36.18,72.68,35.71,72.68z"/>
	<path class="st1" d="M37.16,82.08c-0.47,0-0.95-0.18-1.31-0.54c-0.72-0.72-0.72-1.89,0-2.62l11.03-11.03
		c0.72-0.72,1.89-0.72,2.62,0c0.72,0.72,0.72,1.89,0,2.62L38.47,81.54C38.11,81.9,37.63,82.08,37.16,82.08z"/>
	<path class="st1" d="M61.65,82.08c-0.47,0-0.95-0.18-1.31-0.54c-0.72-0.72-0.72-1.89,0-2.62l11.03-11.03
		c0.72-0.72,1.89-0.72,2.62,0c0.72,0.72,0.72,1.89,0,2.62L62.96,81.54C62.6,81.9,62.13,82.08,61.65,82.08z"/>
	<path class="st1" d="M44.68,86.62c-0.48,0-0.96-0.18-1.32-0.55c-0.72-0.73-0.71-1.9,0.02-2.61l15.83-15.58
		c0.73-0.72,1.9-0.71,2.62,0.02c0.72,0.73,0.71,1.9-0.02,2.61L45.98,86.09C45.62,86.45,45.15,86.62,44.68,86.62z"/>
	<path class="st1" d="M78.01,74.26c-0.47,0-0.95-0.18-1.31-0.54c-0.72-0.72-0.72-1.89,0-2.62l3.65-3.65c0.72-0.72,1.89-0.72,2.62,0
		c0.72,0.72,0.72,1.89,0,2.62l-3.65,3.65C78.95,74.08,78.48,74.26,78.01,74.26z"/>
	<path class="st1" d="M14.15,65.51c-0.47,0-0.95-0.18-1.31-0.54c-0.72-0.72-0.72-1.89,0-2.62l4.57-4.57c0.72-0.72,1.89-0.72,2.62,0
		c0.72,0.72,0.72,1.89,0,2.62l-4.57,4.57C15.1,65.33,14.63,65.51,14.15,65.51z"/>
	<path class="st1" d="M14.92,74.26c-0.47,0-0.95-0.18-1.31-0.54c-0.72-0.72-0.72-1.89,0-2.62L25.4,59.31c0.72-0.72,1.89-0.72,2.62,0
		c0.72,0.72,0.72,1.89,0,2.62L16.22,73.72C15.86,74.08,15.39,74.26,14.92,74.26z"/>
</g>
</svg>
