<?xml version="1.0" encoding="utf-8"?>
<!-- Generator: Adobe Illustrator 25.4.1, SVG Export Plug-In . SVG Version: 6.00 Build 0)  -->
<svg version="1.1" id="Capa_1" xmlns="http://www.w3.org/2000/svg" xmlns:xlink="http://www.w3.org/1999/xlink" x="0px" y="0px"
	 viewBox="0 0 100 100" style="enable-background:new 0 0 100 100;" xml:space="preserve">
<style type="text/css">
	.st0{fill:#CDCCE8;}
	.st1{fill:#424280;}
	.st2{fill:#6E6EB1;}
</style>
<g>
	<path class="st0" d="M1110.58,285.42c12.42-4.95,26.11-7.69,40.49-7.69c56.71,0,102.68,42.63,102.68,95.21
		c0,0.19-0.01,0.37-0.02,0.56c29.72,16.6,49.83,48.34,49.83,84.8v0c0,53.62-43.46,97.08-97.08,97.08h-166.16
		c-53.62,0-97.08-43.46-97.08-97.08v0c0-53.62,43.46-97.08,97.08-97.08h8.87C1049.2,361.22,1062.8,306.91,1110.58,285.42z"/>
	<path class="st1" d="M1209.06,595.09H1008.4c-71.88,0-130.37-58.48-130.37-130.37c0-71.88,58.48-130.37,130.37-130.37h10.71
		c7.25,0,13.13,5.88,13.13,13.13c0,7.25-5.88,13.13-13.13,13.13h-10.71c-57.41,0-104.11,46.7-104.11,104.11
		s46.71,104.11,104.11,104.11h200.66c57.41,0,104.11-46.71,104.11-104.11c0-37.69-20.48-72.54-53.44-90.95l-6.78-3.79l0.06-7.77
		c0-0.23,0.01-0.46,0.02-0.69c-0.07-56.11-49.78-101.74-110.88-101.74c-15.31,0-30.13,2.81-44.04,8.36
		c-6.73,2.69-14.37-0.6-17.05-7.33c-2.68-6.73,0.6-14.37,7.33-17.06c17.02-6.79,35.11-10.22,53.76-10.22
		c73.14,0,133.1,53.78,136.93,121.24c37.41,23.86,60.35,65.31,60.35,109.96C1339.42,536.61,1280.94,595.09,1209.06,595.09z"/>
	<path class="st1" d="M940.76,448.39c-2.19,0-4.4-0.55-6.44-1.7c-6.31-3.56-8.54-11.57-4.98-17.88
		c19.17-33.98,55.3-55.09,94.28-55.09h8.68c7.25,0,13.13,5.88,13.13,13.13c0,7.25-5.88,13.13-13.13,13.13h-8.68
		c-29.52,0-56.89,15.99-71.42,41.74C949.8,445.99,945.35,448.39,940.76,448.39z"/>
	<path class="st1" d="M981.04,470.2c-2.19,0-4.4-0.55-6.44-1.7c-6.31-3.56-8.54-11.57-4.98-17.88
		c11.25-19.94,32.45-32.32,55.32-32.32h4.6c7.25,0,13.13,5.88,13.13,13.13c0,7.25-5.88,13.13-13.13,13.13h-4.6
		c-13.42,0-25.85,7.27-32.45,18.97C990.08,467.79,985.63,470.2,981.04,470.2z"/>
</g>
<g>
	<path class="st0" d="M82.68,21.64c0-0.02,0-0.05,0-0.07c0-7-6.12-12.68-13.67-12.68c-1.91,0-3.74,0.37-5.39,1.02
		C57.26,12.77,55.45,20,55.45,20h-1.18c-3.58,0-6.82,1.45-9.16,3.8c-2.41-1.87-5.5-2.99-8.87-2.99c-1.89,0-3.72,0.35-5.45,1.04
		l-0.08,0.03c-4.65,2.09-6.87,6.38-7.76,8.66c-7.15,0.21-12.9,6.09-12.9,13.28c0,7.33,5.96,13.29,13.29,13.29h1.05
		c-0.43-1.25-0.71-2.58-0.81-3.96h-0.24c-5.15,0-9.33-4.19-9.33-9.33c0-5.15,4.19-9.33,9.33-9.33h2.58l0.38-1.5
		c0.01-0.05,1.4-5.39,6-7.49c1.25-0.49,2.57-0.74,3.94-0.74c2.5,0,4.78,0.84,6.54,2.23c-0.92,1.78-1.44,3.79-1.44,5.93v0
		c0,0.41,0.02,0.82,0.06,1.23c1.18-2.83,3.87-7.66,9.13-10.02c2-0.8,4.21-1.24,6.53-1.24c9.15,0,16.56,6.88,16.56,15.36
		c0,0.03,0,0.06,0,0.09c2.83,1.58,5.12,4.02,6.52,6.96c5.3-1.61,9.16-6.54,9.16-12.37v0C89.31,28.07,86.64,23.85,82.68,21.64z"/>
	<path class="st2" d="M57.5,75.47c0,0-3.07,5.9-1.54,8.16C57.5,85.9,62.1,83.41,57.5,75.47z"/>
	<path class="st2" d="M45.49,70.08c0,0-3.74,7.19-1.87,9.95C45.49,82.79,51.11,79.75,45.49,70.08z"/>
	<path class="st2" d="M50.83,83.7c0,0-3,4.88-1.5,6.75C50.83,92.33,55.32,90.26,50.83,83.7z"/>
	<path class="st2" d="M50.54,24.13c2-0.8,4.21-1.24,6.53-1.24c9.15,0,16.56,6.88,16.56,15.36c0,0.03,0,0.06,0,0.09
		c4.79,2.68,8.04,7.8,8.04,13.68v0c0,8.65-7.01,15.66-15.66,15.66H39.2c-8.65,0-15.66-7.01-15.66-15.66v0
		c0-8.65,7.01-15.66,15.66-15.66h1.43C40.63,36.35,42.83,27.59,50.54,24.13z"/>
</g>
</svg>
