<?xml version="1.0" encoding="utf-8"?>
<!-- Generator: Adobe Illustrator 25.4.1, SVG Export Plug-In . SVG Version: 6.00 Build 0)  -->
<svg version="1.1" id="Capa_1" xmlns="http://www.w3.org/2000/svg" xmlns:xlink="http://www.w3.org/1999/xlink" x="0px" y="0px"
	 viewBox="0 0 100 100" style="enable-background:new 0 0 100 100;" xml:space="preserve">
<style type="text/css">
	.st0{fill:#CDCCE8;}
	.st1{fill:#424280;}
	.st2{fill:#FCC344;}
	.st3{fill:#6E6EB1;}
</style>
<g>
	<path class="st0" d="M1110.58,285.42c12.42-4.95,26.11-7.69,40.49-7.69c56.71,0,102.68,42.63,102.68,95.21
		c0,0.19-0.01,0.37-0.02,0.56c29.72,16.6,49.83,48.34,49.83,84.8v0c0,53.62-43.46,97.08-97.08,97.08h-166.16
		c-53.62,0-97.08-43.46-97.08-97.08v0c0-53.62,43.46-97.08,97.08-97.08h8.87C1049.2,361.22,1062.8,306.91,1110.58,285.42z"/>
	<path class="st1" d="M1209.06,595.09H1008.4c-71.88,0-130.37-58.48-130.37-130.37c0-71.88,58.48-130.37,130.37-130.37h10.71
		c7.25,0,13.13,5.88,13.13,13.13c0,7.25-5.88,13.13-13.13,13.13h-10.71c-57.41,0-104.11,46.7-104.11,104.11
		s46.71,104.11,104.11,104.11h200.66c57.41,0,104.11-46.71,104.11-104.11c0-37.69-20.48-72.54-53.44-90.95l-6.78-3.79l0.06-7.77
		c0-0.23,0.01-0.46,0.02-0.69c-0.07-56.11-49.78-101.74-110.88-101.74c-15.31,0-30.13,2.81-44.04,8.36
		c-6.73,2.69-14.37-0.6-17.05-7.33c-2.68-6.73,0.6-14.37,7.33-17.06c17.02-6.79,35.11-10.22,53.76-10.22
		c73.14,0,133.1,53.78,136.93,121.24c37.41,23.86,60.35,65.31,60.35,109.96C1339.42,536.61,1280.94,595.09,1209.06,595.09z"/>
	<path class="st1" d="M940.76,448.39c-2.19,0-4.4-0.55-6.44-1.7c-6.31-3.56-8.54-11.57-4.98-17.88
		c19.17-33.98,55.3-55.09,94.28-55.09h8.68c7.25,0,13.13,5.88,13.13,13.13c0,7.25-5.88,13.13-13.13,13.13h-8.68
		c-29.52,0-56.89,15.99-71.42,41.74C949.8,445.99,945.35,448.39,940.76,448.39z"/>
	<path class="st1" d="M981.04,470.2c-2.19,0-4.4-0.55-6.44-1.7c-6.31-3.56-8.54-11.57-4.98-17.88
		c11.25-19.94,32.45-32.32,55.32-32.32h4.6c7.25,0,13.13,5.88,13.13,13.13c0,7.25-5.88,13.13-13.13,13.13h-4.6
		c-13.42,0-25.85,7.27-32.45,18.97C990.08,467.79,985.63,470.2,981.04,470.2z"/>
</g>
<g>
	<path class="st2" d="M69.39,20.33c-0.81,0-1.46-0.65-1.46-1.46v-3.03c0-0.81,0.65-1.46,1.46-1.46c0.81,0,1.46,0.65,1.46,1.46v3.03
		C70.85,19.68,70.19,20.33,69.39,20.33z"/>
	<path class="st2" d="M56.96,25.83c-0.37,0-0.75-0.14-1.03-0.43l-2.15-2.15c-0.57-0.57-0.57-1.49,0-2.06c0.57-0.57,1.49-0.57,2.06,0
		l2.15,2.15c0.57,0.57,0.57,1.49,0,2.06C57.71,25.68,57.33,25.83,56.96,25.83z"/>
	<path class="st2" d="M84.8,52.48c-0.37,0-0.75-0.14-1.03-0.43l-2.15-2.15c-0.57-0.57-0.57-1.49,0-2.06c0.57-0.57,1.49-0.57,2.06,0
		l2.15,2.15c0.57,0.57,0.57,1.49,0,2.06C85.55,52.34,85.18,52.48,84.8,52.48z"/>
	<path class="st2" d="M90.59,37.66h-3.03c-0.81,0-1.46-0.65-1.46-1.46c0-0.81,0.65-1.46,1.46-1.46h3.03c0.81,0,1.46,0.65,1.46,1.46
		C92.05,37.01,91.4,37.66,90.59,37.66z"/>
	<path class="st2" d="M82.06,25.23c-0.37,0-0.75-0.14-1.03-0.43c-0.57-0.57-0.57-1.49,0-2.06l2.15-2.15c0.57-0.57,1.49-0.57,2.06,0
		c0.57,0.57,0.57,1.49,0,2.06l-2.15,2.15C82.81,25.09,82.44,25.23,82.06,25.23z"/>
	<path class="st0" d="M49.03,28.54c1.86-0.74,3.9-1.15,6.05-1.15c8.47,0,15.35,6.37,15.35,14.23c0,0.03,0,0.06,0,0.08
		c4.44,2.48,7.45,7.22,7.45,12.67v0c0,8.01-6.5,14.51-14.51,14.51H38.53c-8.01,0-14.51-6.5-14.51-14.51v0
		c0-8.01,6.5-14.51,14.51-14.51h1.33C39.86,39.86,41.89,31.75,49.03,28.54z"/>
	<path class="st2" d="M69.83,21.83c-4.86,0-9.18,2.27-11.98,5.79c7.15,1.21,12.58,7.01,12.58,13.99c0,0.03,0,0.06,0,0.08
		c3.34,1.87,5.87,5.01,6.92,8.77c4.65-2.63,7.8-7.61,7.8-13.33C85.14,28.68,78.29,21.83,69.83,21.83z"/>
	<path class="st3" d="M24.03,54.37L24.03,54.37c0-8.01,6.5-14.51,14.51-14.51h1.33c0,0,0.72-2.86,2.79-5.85
		c-2.21-3.4-6.21-5.67-10.76-5.67c-1.71,0-3.37,0.32-4.93,0.94l-0.06,0.03c-4.35,1.96-6.35,6.05-7.1,8.05
		c-6.55,0.07-11.85,5.42-11.85,11.99c0,6.61,5.38,11.99,11.99,11.99h5.87C24.67,59.27,24.03,56.89,24.03,54.37z"/>
	<path class="st0" d="M31.24,75.79c-0.39,0-0.77-0.15-1.07-0.44c-0.59-0.59-0.59-1.55,0-2.13l2.98-2.98c0.59-0.59,1.55-0.59,2.13,0
		c0.59,0.59,0.59,1.55,0,2.13l-2.98,2.98C32.02,75.64,31.63,75.79,31.24,75.79z"/>
	<path class="st0" d="M32.43,83.46c-0.39,0-0.77-0.15-1.07-0.44c-0.59-0.59-0.59-1.55,0-2.13l9.01-9.01c0.59-0.59,1.55-0.59,2.13,0
		c0.59,0.59,0.59,1.55,0,2.13l-9.01,9.01C33.2,83.32,32.82,83.46,32.43,83.46z"/>
	<path class="st0" d="M52.42,83.46c-0.39,0-0.77-0.15-1.07-0.44c-0.59-0.59-0.59-1.55,0-2.13l9.01-9.01c0.59-0.59,1.55-0.59,2.13,0
		c0.59,0.59,0.59,1.55,0,2.13l-9.01,9.01C53.2,83.32,52.81,83.46,52.42,83.46z"/>
	<path class="st0" d="M38.57,87.17c-0.39,0-0.78-0.15-1.08-0.45c-0.58-0.59-0.58-1.55,0.02-2.13l12.92-12.71
		c0.59-0.59,1.55-0.58,2.13,0.02c0.58,0.59,0.58,1.55-0.02,2.13L39.63,86.74C39.34,87.03,38.95,87.17,38.57,87.17z"/>
	<path class="st0" d="M65.77,77.09c-0.39,0-0.77-0.15-1.07-0.44c-0.59-0.59-0.59-1.55,0-2.13l2.98-2.98c0.59-0.59,1.55-0.59,2.13,0
		c0.59,0.59,0.59,1.55,0,2.13l-2.98,2.98C66.55,76.94,66.16,77.09,65.77,77.09z"/>
	<path class="st0" d="M13.65,69.94c-0.39,0-0.77-0.15-1.07-0.44c-0.59-0.59-0.59-1.55,0-2.13l3.73-3.73c0.59-0.59,1.55-0.59,2.13,0
		c0.59,0.59,0.59,1.55,0,2.13l-3.73,3.73C14.42,69.79,14.04,69.94,13.65,69.94z"/>
	<path class="st0" d="M14.27,77.08c-0.39,0-0.77-0.15-1.07-0.44c-0.59-0.59-0.59-1.55,0-2.13l9.63-9.63c0.59-0.59,1.55-0.59,2.13,0
		c0.59,0.59,0.59,1.55,0,2.13l-9.63,9.63C15.05,76.93,14.66,77.08,14.27,77.08z"/>
</g>
</svg>
