<?xml version="1.0" encoding="utf-8"?>
<!-- Generator: Adobe Illustrator 25.4.1, SVG Export Plug-In . SVG Version: 6.00 Build 0)  -->
<svg version="1.1" id="Capa_1" xmlns="http://www.w3.org/2000/svg" xmlns:xlink="http://www.w3.org/1999/xlink" x="0px" y="0px"
	 viewBox="0 0 100 100" style="enable-background:new 0 0 100 100;" xml:space="preserve">
<style type="text/css">
	.st0{fill:#CDCCE8;}
	.st1{fill:#424280;}
	.st2{fill:#6E6EB1;}
	.st3{fill:#FCC344;}
</style>
<g>
	<path class="st0" d="M1110.58,285.42c12.42-4.95,26.11-7.69,40.49-7.69c56.71,0,102.68,42.63,102.68,95.21
		c0,0.19-0.01,0.37-0.02,0.56c29.72,16.6,49.83,48.34,49.83,84.8v0c0,53.62-43.46,97.08-97.08,97.08h-166.16
		c-53.62,0-97.08-43.46-97.08-97.08v0c0-53.62,43.46-97.08,97.08-97.08h8.87C1049.2,361.22,1062.8,306.91,1110.58,285.42z"/>
	<path class="st1" d="M1209.06,595.09H1008.4c-71.88,0-130.37-58.48-130.37-130.37c0-71.88,58.48-130.37,130.37-130.37h10.71
		c7.25,0,13.13,5.88,13.13,13.13c0,7.25-5.88,13.13-13.13,13.13h-10.71c-57.41,0-104.11,46.7-104.11,104.11
		s46.71,104.11,104.11,104.11h200.66c57.41,0,104.11-46.71,104.11-104.11c0-37.69-20.48-72.54-53.44-90.95l-6.78-3.79l0.06-7.77
		c0-0.23,0.01-0.46,0.02-0.69c-0.07-56.11-49.78-101.74-110.88-101.74c-15.31,0-30.13,2.81-44.04,8.36
		c-6.73,2.69-14.37-0.6-17.05-7.33c-2.68-6.73,0.6-14.37,7.33-17.06c17.02-6.79,35.11-10.22,53.76-10.22
		c73.14,0,133.1,53.78,136.93,121.24c37.41,23.86,60.35,65.31,60.35,109.96C1339.42,536.61,1280.94,595.09,1209.06,595.09z"/>
	<path class="st1" d="M940.76,448.39c-2.19,0-4.4-0.55-6.44-1.7c-6.31-3.56-8.54-11.57-4.98-17.88
		c19.17-33.98,55.3-55.09,94.28-55.09h8.68c7.25,0,13.13,5.88,13.13,13.13c0,7.25-5.88,13.13-13.13,13.13h-8.68
		c-29.52,0-56.89,15.99-71.42,41.74C949.8,445.99,945.35,448.39,940.76,448.39z"/>
	<path class="st1" d="M981.04,470.2c-2.19,0-4.4-0.55-6.44-1.7c-6.31-3.56-8.54-11.57-4.98-17.88
		c11.25-19.94,32.45-32.32,55.32-32.32h4.6c7.25,0,13.13,5.88,13.13,13.13c0,7.25-5.88,13.13-13.13,13.13h-4.6
		c-13.42,0-25.85,7.27-32.45,18.97C990.08,467.79,985.63,470.2,981.04,470.2z"/>
</g>
<g>
	<path class="st2" d="M48.47,25.84c2-0.8,4.2-1.24,6.51-1.24c9.12,0,16.51,6.85,16.51,15.3c0,0.03,0,0.06,0,0.09
		c4.78,2.67,8.01,7.77,8.01,13.63v0c0,8.62-6.99,15.6-15.6,15.6H37.18c-8.62,0-15.6-6.99-15.6-15.6v0c0-8.62,6.99-15.6,15.6-15.6
		h1.43C38.61,38.02,40.79,29.3,48.47,25.84z"/>
	<path class="st0" d="M84.72,30.74C84.22,21.1,75.66,13.4,65.21,13.4c-2.66,0-5.24,0.49-7.66,1.46l-0.07,0.03
		c-6.34,2.85-9.47,8.63-10.8,11.91c0.56-0.35,1.15-0.67,1.79-0.96c0.96-0.38,1.97-0.68,3.02-0.89c1.49-2.48,3.84-5.27,7.38-6.87
		c2-0.79,4.14-1.2,6.34-1.2c8.85,0,16.05,6.62,16.05,14.75c0,0.03,0,0.06,0,0.09l-0.01,1.03l0.9,0.5c4.78,2.67,7.74,7.72,7.74,13.18
		c0,7.4-5.36,13.58-12.41,14.84c-0.78,1.39-1.77,2.64-2.92,3.72h0.24c10.24,0,18.56-8.33,18.56-18.56
		C93.38,40.05,90.09,34.13,84.72,30.74z"/>
	<path class="st1" d="M21.58,53.63L21.58,53.63c0-8.62,6.99-15.6,15.6-15.6h1.43c0,0,0.54-2.16,2.03-4.76
		c-1.98-3.57-5.98-6.01-10.6-6.01c-1.67,0-3.26,0.32-4.7,0.89c-5.55,2.5-7.13,8.8-7.13,8.8h-1.03c-6.22,0-11.27,5.05-11.27,11.27v0
		c0,6.22,5.05,11.27,11.27,11.27h5.54C21.98,57.68,21.58,55.7,21.58,53.63z"/>
	<path class="st1" d="M29.34,76.67c-0.42,0-0.83-0.16-1.15-0.48c-0.63-0.63-0.63-1.66,0-2.3l3.21-3.21c0.63-0.63,1.66-0.63,2.3,0
		c0.63,0.63,0.63,1.66,0,2.3l-3.21,3.21C30.17,76.51,29.75,76.67,29.34,76.67z"/>
	<path class="st1" d="M30.62,84.92c-0.42,0-0.83-0.16-1.15-0.48c-0.63-0.63-0.63-1.66,0-2.3l9.69-9.69c0.63-0.63,1.66-0.63,2.3,0
		c0.63,0.63,0.63,1.66,0,2.3l-9.69,9.69C31.45,84.76,31.03,84.92,30.62,84.92z"/>
	<path class="st1" d="M52.12,84.92c-0.42,0-0.83-0.16-1.15-0.48c-0.63-0.63-0.63-1.66,0-2.3l9.69-9.69c0.63-0.63,1.66-0.63,2.3,0
		c0.63,0.63,0.63,1.66,0,2.3l-9.69,9.69C52.95,84.76,52.54,84.92,52.12,84.92z"/>
	<path class="st1" d="M66.48,78.06c-0.42,0-0.83-0.16-1.15-0.48c-0.63-0.63-0.63-1.66,0-2.3l3.21-3.21c0.63-0.63,1.66-0.63,2.3,0
		c0.63,0.63,0.63,1.66,0,2.3l-3.21,3.21C67.31,77.9,66.89,78.06,66.48,78.06z"/>
	<path class="st1" d="M10.42,70.37c-0.42,0-0.83-0.16-1.15-0.48c-0.63-0.63-0.63-1.66,0-2.3l4.01-4.01c0.63-0.63,1.66-0.63,2.3,0
		c0.63,0.63,0.63,1.66,0,2.3l-4.01,4.01C11.25,70.22,10.83,70.37,10.42,70.37z"/>
	<path class="st1" d="M11.09,78.06c-0.42,0-0.83-0.16-1.15-0.48c-0.63-0.63-0.63-1.66,0-2.3l10.35-10.35c0.63-0.63,1.66-0.63,2.3,0
		c0.63,0.63,0.63,1.66,0,2.3L12.23,77.58C11.92,77.9,11.5,78.06,11.09,78.06z"/>
	<polygon class="st3" points="48.37,70.64 58.9,70.58 39.89,88.32 41.25,83.12 30.32,92.57 43.5,74.59 43.01,78.75 	"/>
</g>
</svg>
