<?xml version="1.0" encoding="utf-8"?>
<!-- Generator: Adobe Illustrator 25.4.1, SVG Export Plug-In . SVG Version: 6.00 Build 0)  -->
<svg version="1.1" id="Capa_1" xmlns="http://www.w3.org/2000/svg" xmlns:xlink="http://www.w3.org/1999/xlink" x="0px" y="0px"
	 viewBox="0 0 100 100" style="enable-background:new 0 0 100 100;" xml:space="preserve">
<style type="text/css">
	.st0{fill:#CDCCE8;}
	.st1{fill:#424280;}
</style>
<g>
	<path class="st0" d="M1110.58,285.42c12.42-4.95,26.11-7.69,40.49-7.69c56.71,0,102.68,42.63,102.68,95.21
		c0,0.19-0.01,0.37-0.02,0.56c29.72,16.6,49.83,48.34,49.83,84.8v0c0,53.62-43.46,97.08-97.08,97.08h-166.16
		c-53.62,0-97.08-43.46-97.08-97.08v0c0-53.62,43.46-97.08,97.08-97.08h8.87C1049.2,361.22,1062.8,306.91,1110.58,285.42z"/>
	<path class="st1" d="M1209.06,595.09H1008.4c-71.88,0-130.37-58.48-130.37-130.37c0-71.88,58.48-130.37,130.37-130.37h10.71
		c7.25,0,13.13,5.88,13.13,13.13c0,7.25-5.88,13.13-13.13,13.13h-10.71c-57.41,0-104.11,46.7-104.11,104.11
		s46.71,104.11,104.11,104.11h200.66c57.41,0,104.11-46.71,104.11-104.11c0-37.69-20.48-72.54-53.44-90.95l-6.78-3.79l0.06-7.77
		c0-0.23,0.01-0.46,0.02-0.69c-0.07-56.11-49.78-101.74-110.88-101.74c-15.31,0-30.13,2.81-44.04,8.36
		c-6.73,2.69-14.37-0.6-17.05-7.33c-2.68-6.73,0.6-14.37,7.33-17.06c17.02-6.79,35.11-10.22,53.76-10.22
		c73.14,0,133.1,53.78,136.93,121.24c37.41,23.86,60.35,65.31,60.35,109.96C1339.42,536.61,1280.94,595.09,1209.06,595.09z"/>
	<path class="st1" d="M940.76,448.39c-2.19,0-4.4-0.55-6.44-1.7c-6.31-3.56-8.54-11.57-4.98-17.88
		c19.17-33.98,55.3-55.09,94.28-55.09h8.68c7.25,0,13.13,5.88,13.13,13.13c0,7.25-5.88,13.13-13.13,13.13h-8.68
		c-29.52,0-56.89,15.99-71.42,41.74C949.8,445.99,945.35,448.39,940.76,448.39z"/>
	<path class="st1" d="M981.04,470.2c-2.19,0-4.4-0.55-6.44-1.7c-6.31-3.56-8.54-11.57-4.98-17.88
		c11.25-19.94,32.45-32.32,55.32-32.32h4.6c7.25,0,13.13,5.88,13.13,13.13c0,7.25-5.88,13.13-13.13,13.13h-4.6
		c-13.42,0-25.85,7.27-32.45,18.97C990.08,467.79,985.63,470.2,981.04,470.2z"/>
</g>
<g>
	<path class="st1" d="M90.36,47.12h-6.54l3.95-3.95c1.13-1.13,1.13-2.95,0-4.08c-1.13-1.13-2.95-1.13-4.08,0l-8.03,8.03h-7.12
		c-4.41-3.63-3.9-7.52-3.87-7.68l-0.01,0.04l-0.05-0.01l6.27-6.27h11.04c1.59,0,2.88-1.29,2.88-2.88c0-1.59-1.29-2.88-2.88-2.88
		h-5.27l3.92-3.92c1.13-1.13,1.13-2.95,0-4.08c-1.13-1.13-2.95-1.13-4.08,0l-3.86,3.86v-5.14c0-1.59-1.29-2.88-2.88-2.88
		c-1.59,0-2.88,1.29-2.88,2.88v10.91l-6.12,6.12c-0.04,0.01-0.07,0.01-0.11,0.01c-0.04,0.01-4.05,0.59-7.73-3.98
		c-0.01-0.01-0.02-0.02-0.03-0.03v-7.34l7.74-7.74c1.13-1.13,1.13-2.95,0-4.08c-1.13-1.13-2.95-1.13-4.08,0l-3.66,3.66V9.64
		c0-1.59-1.29-2.88-2.88-2.88c-1.59,0-2.88,1.29-2.88,2.88v6.07l-3.7-3.7c-1.13-1.13-2.95-1.13-4.08,0c-1.13,1.13-1.13,2.95,0,4.08
		l7.78,7.78v7.52c-3.61,4.33-7.58,3.8-7.58,3.8l-5.49-5.22V18.85c0-1.59-1.29-2.88-2.88-2.88c-1.59,0-2.88,1.29-2.88,2.88v5.35
		l-4.78-4.78c-1.13-1.13-2.95-1.13-4.08,0c-1.13,1.13-1.13,2.95,0,4.08l4.63,4.63h-5.06c-1.59,0-2.88,1.29-2.88,2.88
		c0,1.59,1.29,2.88,2.88,2.88h10.83l5.98,5.98c0.02,1.11-0.29,4.26-3.9,7.23h-6.8l-7.7-7.7c-1.13-1.13-2.95-1.13-4.08,0
		c-1.13,1.13-1.13,2.95,0,4.08l3.62,3.62h-7.3c-1.59,0-2.88,1.29-2.88,2.88c0,1.59,1.29,2.88,2.88,2.88h7.41l-3.74,3.74
		c-1.13,1.13-1.13,2.95,0,4.08c0.56,0.56,1.3,0.84,2.04,0.84c0.74,0,1.48-0.28,2.04-0.84l7.82-7.82h6.63
		c3.61,2.93,3.97,6.05,3.96,7.24l-5.61,5.61H19.37c-1.59,0-2.88,1.29-2.88,2.88c0,1.59,1.29,2.88,2.88,2.88h5.05l-5,5
		c-1.13,1.13-1.13,2.95,0,4.08c0.56,0.56,1.3,0.84,2.04,0.84c0.74,0,1.48-0.28,2.04-0.84l5.15-5.15v5.36c0,1.59,1.29,2.88,2.88,2.88
		c1.59,0,2.88-1.29,2.88-2.88V69.66l5.34-5.34c0.94-0.05,4.24,0.07,7.36,3.81v6.54l-7.71,7.71c-1.13,1.13-1.13,2.95,0,4.08
		c1.13,1.13,2.95,1.13,4.08,0l3.63-3.63v7.52c0,1.59,1.29,2.88,2.88,2.88c1.59,0,2.88-1.29,2.88-2.88v-7.62l3.73,3.73
		c0.56,0.56,1.3,0.84,2.04,0.84c0.74,0,1.48-0.28,2.04-0.84c1.13-1.13,1.13-2.95,0-4.08l-7.81-7.81v-6.23
		c0.01-0.01,0.02-0.02,0.03-0.03c2.98-3.7,6.17-4.02,7.32-4.01l5.75,5.75v10.35c0,1.59,1.29,2.88,2.88,2.88s2.88-1.29,2.88-2.88
		v-4.58l4.75,4.75c0.56,0.56,1.3,0.84,2.04,0.84s1.48-0.28,2.04-0.84c1.13-1.13,1.13-2.95,0-4.08l-5.37-5.37h5.83
		c1.59,0,2.88-1.29,2.88-2.88s-1.29-2.88-2.88-2.88h-11.6l-4.77-4.77c0,0,0-0.01,0-0.01c-0.01-0.04-0.59-4.02,3.93-7.69h7.6
		l7.49,7.49c0.56,0.56,1.3,0.84,2.04,0.84c0.74,0,1.48-0.28,2.04-0.84c1.13-1.13,1.13-2.95,0-4.08l-3.41-3.41h6
		c1.59,0,2.88-1.29,2.88-2.88C93.24,48.41,91.95,47.12,90.36,47.12z M60.09,43.99c0.33,0.98,0.8,2.04,1.49,3.12h-4.61L60.09,43.99z
		 M40.23,55.69c-0.32-0.89-0.78-1.84-1.39-2.81h4.2L40.23,55.69z M38.87,47.12c0.61-0.96,1.06-1.91,1.38-2.79l2.79,2.79H38.87z
		 M47.12,38.32v4.72l-3.22-3.22C44.9,39.5,46,39.02,47.12,38.32z M47.12,61.21c-0.99-0.62-1.95-1.06-2.86-1.38l2.86-2.86V61.21z
		 M50.2,52.78c-1.89,0-3.42-1.53-3.42-3.42c0-1.89,1.53-3.42,3.42-3.42c1.89,0,3.42,1.53,3.42,3.42
		C53.62,51.25,52.09,52.78,50.2,52.78z M52.88,61.32v-4.36l2.91,2.91C54.87,60.2,53.89,60.67,52.88,61.32z M52.88,43.04v-4.83
		c1.13,0.73,2.24,1.23,3.26,1.57L52.88,43.04z M60.1,56.02l-3.14-3.14h4.64C60.91,53.97,60.43,55.03,60.1,56.02z"/>
</g>
</svg>
