<?xml version="1.0" encoding="utf-8"?>
<!-- Generator: Adobe Illustrator 25.4.1, SVG Export Plug-In . SVG Version: 6.00 Build 0)  -->
<svg version="1.1" id="Capa_1" xmlns="http://www.w3.org/2000/svg" xmlns:xlink="http://www.w3.org/1999/xlink" x="0px" y="0px"
	 viewBox="0 0 100 100" style="enable-background:new 0 0 100 100;" xml:space="preserve">
<style type="text/css">
	.st0{fill:#CDCCE8;}
	.st1{fill:#424280;}
	.st2{fill:#6E6EB1;}
</style>
<g>
	<path class="st0" d="M1110.58,285.42c12.42-4.95,26.11-7.69,40.49-7.69c56.71,0,102.68,42.63,102.68,95.21
		c0,0.19-0.01,0.37-0.02,0.56c29.72,16.6,49.83,48.34,49.83,84.8v0c0,53.62-43.46,97.08-97.08,97.08h-166.16
		c-53.62,0-97.08-43.46-97.08-97.08v0c0-53.62,43.46-97.08,97.08-97.08h8.87C1049.2,361.22,1062.8,306.91,1110.58,285.42z"/>
	<path class="st1" d="M1209.06,595.09H1008.4c-71.88,0-130.37-58.48-130.37-130.37c0-71.88,58.48-130.37,130.37-130.37h10.71
		c7.25,0,13.13,5.88,13.13,13.13c0,7.25-5.88,13.13-13.13,13.13h-10.71c-57.41,0-104.11,46.7-104.11,104.11
		s46.71,104.11,104.11,104.11h200.66c57.41,0,104.11-46.71,104.11-104.11c0-37.69-20.48-72.54-53.44-90.95l-6.78-3.79l0.06-7.77
		c0-0.23,0.01-0.46,0.02-0.69c-0.07-56.11-49.78-101.74-110.88-101.74c-15.31,0-30.13,2.81-44.04,8.36
		c-6.73,2.69-14.37-0.6-17.05-7.33c-2.68-6.73,0.6-14.37,7.33-17.06c17.02-6.79,35.11-10.22,53.76-10.22
		c73.14,0,133.1,53.78,136.93,121.24c37.41,23.86,60.35,65.31,60.35,109.96C1339.42,536.61,1280.94,595.09,1209.06,595.09z"/>
	<path class="st1" d="M940.76,448.39c-2.19,0-4.4-0.55-6.44-1.7c-6.31-3.56-8.54-11.57-4.98-17.88
		c19.17-33.98,55.3-55.09,94.28-55.09h8.68c7.25,0,13.13,5.88,13.13,13.13c0,7.25-5.88,13.13-13.13,13.13h-8.68
		c-29.52,0-56.89,15.99-71.42,41.74C949.8,445.99,945.35,448.39,940.76,448.39z"/>
	<path class="st1" d="M981.04,470.2c-2.19,0-4.4-0.55-6.44-1.7c-6.31-3.56-8.54-11.57-4.98-17.88
		c11.25-19.94,32.45-32.32,55.32-32.32h4.6c7.25,0,13.13,5.88,13.13,13.13c0,7.25-5.88,13.13-13.13,13.13h-4.6
		c-13.42,0-25.85,7.27-32.45,18.97C990.08,467.79,985.63,470.2,981.04,470.2z"/>
</g>
<g>
	<path class="st2" d="M56.04,14.5c2.21-0.88,4.65-1.37,7.22-1.37c10.11,0,18.3,7.6,18.3,16.97c0,0.03,0,0.07,0,0.1
		c5.3,2.96,8.88,8.62,8.88,15.12v0c0,9.56-7.75,17.31-17.31,17.31H43.51c-9.56,0-17.31-7.75-17.31-17.31v0
		c0-9.56,7.75-17.31,17.31-17.31h1.58C45.09,28.01,47.52,18.33,56.04,14.5z"/>
	<path class="st1" d="M27.52,51.92h-4.71c-5.76,0-10.45-4.69-10.45-10.45s4.69-10.45,10.45-10.45h2.49l0.33-1.33
		c0.02-0.06,1.56-6,6.7-8.34c1.39-0.55,2.88-0.83,4.41-0.83c3.92,0,7.38,1.87,9.37,4.68c0.43-0.99,1.02-2.15,1.79-3.37
		C45.21,18.87,41.2,17,36.74,17c-1.99,0-3.93,0.37-5.75,1.09l-0.07,0.03c-5.07,2.28-7.4,7.05-8.28,9.38
		c-7.63,0.09-13.81,6.32-13.81,13.97c0,7.7,6.27,13.97,13.97,13.97h6.67C28.7,54.36,28.03,53.18,27.52,51.92z"/>
	<path class="st1" d="M56.47,72.41c-4.09,0-8.59-0.4-10.24-1.98c-0.57-0.55-0.86-1.24-0.81-1.98c0.06-1.1,0.54-2.06,1.37-2.79
		c2.38-2.07,7.07-1.75,7.6-1.7c0.64,0.05,1.12,0.62,1.06,1.26c-0.05,0.64-0.62,1.12-1.26,1.06l0,0c-1.16-0.1-4.49-0.07-5.88,1.14
		c-0.37,0.32-0.55,0.69-0.58,1.16c0,0.03,0,0.07,0.1,0.17c1.62,1.55,10.18,1.51,15.74,0.99c0.64-0.06,1.21,0.41,1.27,1.05
		c0.06,0.64-0.41,1.21-1.05,1.27C62.72,72.15,59.73,72.41,56.47,72.41z"/>
	<path class="st1" d="M69.21,71.32c-0.61,0-1.12-0.47-1.16-1.09c-0.04-0.64,0.44-1.2,1.08-1.24c1.76-0.12,2.84-1.05,2.91-1.65
		c0.05-0.43-0.64-0.81-1.31-1.01c-3.61-1.1-9.69-0.12-9.75-0.11c-0.63,0.11-1.23-0.32-1.34-0.96c-0.1-0.63,0.32-1.23,0.96-1.34
		c0.27-0.04,6.68-1.08,10.81,0.18c3,0.92,3.01,2.91,2.94,3.5c-0.22,1.93-2.4,3.52-5.07,3.7C69.26,71.32,69.23,71.32,69.21,71.32z"/>
	<path class="st1" d="M56.42,77.87c-2.92,0-6.92-0.26-8.09-1.6c-0.37-0.43-0.51-0.95-0.39-1.49c0.51-2.26,3.3-2.43,4.87-2.17
		c0.57,0.09,0.96,0.63,0.86,1.2c-0.09,0.57-0.63,0.96-1.2,0.86c-0.54-0.09-1.94-0.13-2.37,0.35c1.22,0.65,6.22,0.93,9.4,0.65
		c0.58-0.05,1.08,0.38,1.13,0.95c0.05,0.58-0.38,1.08-0.95,1.13C59.65,77.77,58.25,77.87,56.42,77.87z"/>
	<path class="st1" d="M63.73,77.74c-0.55,0-1.01-0.43-1.04-0.99c-0.03-0.58,0.41-1.07,0.98-1.11c1.79-0.1,6.81-0.51,8.53-1.12
		c0.3-0.11,0.47-0.23,0.54-0.3c-0.16-0.12-0.65-0.35-1.65-0.23c-0.57,0.07-1.1-0.34-1.16-0.92c-0.07-0.57,0.34-1.1,0.92-1.16
		c2.38-0.28,3.71,0.73,3.98,1.85c0.2,0.87-0.18,2.1-1.92,2.73c-2.34,0.84-8.83,1.23-9.11,1.24C63.77,77.74,63.75,77.74,63.73,77.74z
		"/>
	<path class="st1" d="M61.62,82.52c-3.32,0-6.53-0.3-7.67-0.92c-0.57-0.31-0.72-0.71-0.74-1c-0.05-0.57,0.12-1.08,0.5-1.47
		c0.77-0.8,2.09-0.78,2.35-0.77c0.45,0.02,0.8,0.4,0.78,0.85c-0.02,0.45-0.4,0.79-0.85,0.78c-0.34-0.01-0.9,0.07-1.1,0.26
		c1.91,0.81,12.49,0.91,14.62-0.22c0.26-0.14,0.43-0.25,0.54-0.34c-0.26-0.09-0.66-0.17-0.98-0.14c-0.45,0.05-0.85-0.28-0.9-0.72
		c-0.05-0.45,0.28-0.85,0.72-0.9c0.76-0.08,2.54,0.13,2.91,1.31c0.25,0.81-0.27,1.56-1.53,2.23C68.96,82.16,65.23,82.52,61.62,82.52
		z"/>
	<path class="st1" d="M65.15,86.87c-1.97,0-3.89-0.23-4.85-0.67c-0.75-0.35-0.93-0.83-0.95-1.17c-0.05-0.78,0.26-1.25,0.52-1.52
		c0.62-0.62,1.53-0.58,1.63-0.57c0.45,0.03,0.79,0.42,0.76,0.87c-0.03,0.45-0.42,0.78-0.86,0.76c-0.12,0-0.31,0.03-0.38,0.1
		c-0.01,0.01-0.02,0.04-0.03,0.06c1.26,0.66,7.66,0.72,8.86-0.18c0.17-0.13,0.27-0.23,0.33-0.3c-0.1-0.04-0.24-0.07-0.31-0.06
		c-0.44,0.07-0.86-0.24-0.93-0.69c-0.07-0.45,0.24-0.86,0.69-0.93c0.77-0.12,1.81,0.26,2.15,1.07c0.18,0.42,0.29,1.28-0.96,2.21
		C69.9,86.54,67.49,86.87,65.15,86.87z"/>
</g>
</svg>
