<svg width="266" height="344" viewBox="0 0 266 344" fill="none" xmlns="http://www.w3.org/2000/svg">
<rect width="266" height="344" rx="20" fill="#88C3EA"/>
<mask id="mask0_421_1378" style="mask-type:alpha" maskUnits="userSpaceOnUse" x="0" y="0" width="266" height="344">
<rect width="266" height="344" rx="20" fill="#C5E6E5"/>
</mask>
<g mask="url(#mask0_421_1378)">
<path d="M202.343 301.288C202.343 301.288 202.343 301.713 202.213 302.694C201.943 305.963 201.297 315.518 200.758 336.688C200.66 340.292 200.341 345.777 199.94 352.169C198.911 367.322 197.194 387.585 196.099 400.049C195.747 404.136 195.453 407.406 195.282 409.367C195.159 410.659 195.094 411.37 195.094 411.37L192.47 411.043L179.842 409.457C179.842 409.457 179.842 405.566 179.842 399.739C179.842 383.539 179.915 352.332 179.842 348.245C179.67 340.17 176.507 300.144 176.507 300.144L202.343 301.288Z" fill="#325569"/>
<path d="M219.802 399.902C219.802 399.902 218.257 396.15 215.944 390.56C211.604 380.057 198.142 349.512 197.636 347.689C193.851 334.129 197.072 302.179 197.072 302.179L202.213 302.694L223.832 306.781C223.832 306.781 218.11 341.584 218.535 347.649C218.919 353.108 233.076 367.837 231.809 397.687L228.45 401.022C228.54 403.752 219.802 399.902 219.802 399.902Z" fill="#325569"/>
<g style="mix-blend-mode:overlay" opacity="0.3">
<path d="M173.564 309.298L219.23 321.329L218.633 305.816L173.932 301.574L173.564 309.298Z" fill="#1D1D1B"/>
</g>
<path d="M170.042 291.676C170.059 292.583 169.927 293.486 169.649 294.349C169.257 295.715 168.709 297.032 168.015 298.272C167.352 299.376 166.535 300.234 165.62 300.16C165.322 300.109 165.048 299.968 164.833 299.756C164.619 299.544 164.474 299.272 164.418 298.975C164.33 298.378 164.36 297.77 164.508 297.185C162.222 300.054 158.983 302.009 155.378 302.694L154.839 302.784C154.119 302.903 153.383 302.878 152.673 302.71C152.23 302.607 151.82 302.398 151.476 302.1C151.133 301.802 150.868 301.425 150.703 301.002C150.286 299.727 151.103 298.403 151.88 297.308L158.762 287.638L158.819 287.557C159.315 286.912 159.725 286.206 160.037 285.456C160.429 284.426 160.47 283.723 161.606 283.87C161.742 283.885 161.875 283.91 162.007 283.944C162.943 284.295 163.82 284.789 164.606 285.407C166.192 286.453 168.153 287.679 169.249 289.273C169.741 289.98 170.016 290.815 170.042 291.676Z" fill="#89182C"/>
<g style="mix-blend-mode:overlay" opacity="0.3">
<path d="M170.042 291.676C170.059 292.583 169.927 293.486 169.649 294.349C169.257 295.715 168.708 297.032 168.014 298.272L158.844 287.589C159.34 286.945 159.749 286.239 160.062 285.489C160.454 284.459 160.495 283.756 161.631 283.903L170.042 291.676Z" fill="#1D1D1B"/>
</g>
<path d="M162.98 277.969C162.367 278.928 162.015 280.029 161.958 281.165C162.13 284.484 167.156 285.579 168.423 288.677C170.31 283.579 171.144 278.151 170.875 272.722C170.769 268.365 170.957 261.933 168.995 258.01C167.965 264.965 166.249 271.619 162.98 277.969Z" fill="#DB720C"/>
<path d="M165.685 280.388C164.806 279.613 163.705 279.135 162.538 279.023C159.915 279.023 157.749 282.897 158.051 285.121C158.337 287.197 160.503 288.815 162.138 290.025C163.274 290.842 166.494 293.793 167.859 293.605C168.726 293.49 169.208 292.599 169.494 291.815C170.148 290.025 171.276 286.952 170.622 285.063C169.968 283.273 167.156 281.475 165.685 280.388Z" fill="#DB9653"/>
<path d="M208.147 220.509C202.023 245.182 198.449 270.418 197.48 295.82C197.341 299.58 197.063 303.773 194.211 306.348C191.612 308.686 187.86 309.07 184.231 308.236C182.164 307.761 180.195 306.931 178.411 305.784C176.635 304.721 175.119 303.274 173.973 301.55C171.406 297.463 172.395 290.973 172.175 286.421C171.251 267.825 173.354 249.203 178.403 231.282C178.403 231.143 178.477 230.988 178.517 230.841C179.098 228.764 179.735 226.68 180.406 224.62C180.455 224.449 180.52 224.269 180.577 224.097C181.787 220.359 183.13 216.673 184.607 213.039C185.236 211.461 185.988 209.769 187.517 208.952C188.841 208.2 190.484 208.249 192.028 208.314L201.019 208.707C202.932 208.788 204.967 208.911 206.512 209.982C209.675 212.205 209.054 216.847 208.147 220.509Z" fill="#DDE3E1"/>
<g style="mix-blend-mode:overlay" opacity="0.7">
<path d="M204.06 210.3C203.643 209.589 202.621 209.532 201.779 209.54L192.445 209.728C191.434 209.65 190.422 209.862 189.527 210.341C188.457 211.076 188.154 212.425 187.852 213.61C187.272 216.168 186.158 218.575 184.582 220.672C183.482 222.095 182.088 223.263 180.496 224.097C180.438 224.269 180.373 224.448 180.324 224.62C179.564 226.802 178.599 229.026 178.321 231.281C178.214 231.985 178.192 232.698 178.256 233.407C178.621 237.082 178.668 240.782 178.395 244.465C177.79 252.05 175.771 259.497 175.027 267.082C173.965 277.952 175.567 288.881 177.153 299.694C177.42 301.746 177.813 303.78 178.33 305.783C180.113 306.931 182.082 307.76 184.149 308.236C184.15 307.639 184.101 307.042 184.002 306.454C183.618 304.124 182.555 301.95 181.713 299.735C178.011 290.008 178.444 279.301 180.144 269.051C181.844 258.802 184.631 248.748 185.465 238.425C185.759 234.731 185.776 230.93 186.806 227.317C187.623 224.579 190.026 222.944 191.072 220.198C191.775 218.367 192.233 216.34 193.679 214.959C193.796 214.854 193.919 214.756 194.047 214.665L200.521 218.024L202.213 212.654C202.624 212.586 203.018 212.439 203.373 212.221C203.707 212.044 203.962 211.749 204.089 211.393C204.216 211.038 204.206 210.648 204.06 210.3Z" fill="#1D1D1B"/>
</g>
<path d="M234.719 302.44C234.719 305.031 234.874 307.59 234.719 310.148C234.654 311.475 234.468 312.794 234.163 314.088C233.297 317.7 231.286 321.223 227.992 323.201C224.461 325.31 219.287 325.833 215.209 325.4C211.13 324.967 206.88 325.482 202.654 325.572H201.681C198.739 325.572 194.595 325.939 192.069 324.19C189.887 322.678 190.598 319.376 190.533 317.136C190.287 308.513 189.977 299.849 189.715 291.185C189.429 281.541 189.209 271.888 189.241 262.251C189.244 256.971 189.585 251.696 190.263 246.46C190.361 245.74 190.467 245.029 190.574 244.318C192.641 231.069 197.456 217.828 207.444 209.057C210.321 216.92 216.516 223.181 221.96 229.696C228.556 237.591 231.768 245.054 232.52 255.034C233.035 262.235 233.926 269.337 234.523 276.473C234.752 279.203 234.94 281.941 235.038 284.696C235.111 286.412 235.144 288.145 235.136 289.878C235.136 294.128 234.752 298.264 234.719 302.44Z" fill="#DB720C"/>
<g style="mix-blend-mode:overlay" opacity="0.3">
<path d="M235.054 284.729L225.246 291.186L234.555 276.473C234.768 279.236 234.956 281.974 235.054 284.729Z" fill="#1D1D1B"/>
</g>
<path d="M220.317 211.379C223.628 212.066 226.554 215.343 228.303 218.155C233.501 226.484 236.656 235.883 239.746 245.193C241.127 249.28 242.517 253.514 242.459 257.846C242.378 263.968 239.468 269.199 236.1 274.078C232.218 279.694 228.605 285.75 225.205 291.717C224.625 292.73 224.388 294.014 223.39 294.57C221.527 295.575 219.255 294.512 217.416 293.466C215.135 292.175 212.601 290.54 212.209 287.941C211.645 284.238 213.844 280.756 215.323 277.544L221.094 264.981C222.312 262.341 223.546 259.595 223.546 256.693C223.546 253.497 221.985 250.53 220.562 247.702C216.809 240.194 213.552 232.448 210.811 224.514C208.809 218.719 210.942 214.567 216.459 211.902C217.649 211.296 219.009 211.111 220.317 211.379Z" fill="#DB720C"/>
<path d="M185.179 324.902C182.128 325.217 179.051 325.151 176.016 324.705C173 324.141 170.05 322.727 168.309 320.316C166.568 317.905 166.298 315.126 166.216 312.347C165.93 302.956 168.366 293.67 168.668 284.271C168.946 274.185 166.731 264.139 167.197 254.029C167.549 246.215 169.518 238.613 172.101 231.143C172.15 230.987 172.199 230.848 172.257 230.693C172.837 228.993 173.466 227.301 174.112 225.609C174.112 225.536 174.169 225.454 174.202 225.388C175.273 222.56 176.392 219.773 177.512 216.978C179.4 218.651 180.862 220.75 181.779 223.1C181.812 223.171 181.839 223.245 181.861 223.32C181.861 223.378 181.861 223.427 181.91 223.476C182.093 224.064 182.219 224.669 182.286 225.282C182.415 226.673 182.434 228.073 182.343 229.467C182.343 229.524 182.343 229.598 182.343 229.663C182.228 231.38 181.975 233.112 181.738 234.829C180.234 245.454 178.714 256.08 177.905 266.747C177.569 271.169 177.349 275.59 177.308 280.004V281.05C177.308 295.763 179.531 310.949 185.163 324.64L185.179 324.902Z" fill="#DB720C"/>
<path d="M207.844 225.993C208.269 228.445 208.882 231.077 207.599 233.211C206.651 234.796 204.861 235.712 203.324 236.799C199 239.856 196.328 244.67 194.987 249.639C193.647 254.609 193.508 259.799 193.353 264.924C193.173 271.904 193.107 278.885 193.042 285.857C193.042 289.295 193.006 292.739 192.936 296.188C192.887 299.457 192.625 302.539 193.026 305.759L194.66 319.074C194.865 320.709 195.004 322.613 193.843 323.855C193.539 324.188 193.149 324.43 192.717 324.555C192.284 324.681 191.825 324.685 191.391 324.567C190.41 324.207 189.952 323.153 189.658 322.188C187.933 316.467 188.685 310.312 189.029 304.468C189.903 289.886 187.974 275.288 188.064 260.69C188.121 251.56 189.021 242.34 191.8 233.57C194.497 225.062 198.077 216.504 203.864 209.434C204.64 208.486 206.128 206.867 207.542 207.799C208.956 208.731 208.024 211.289 207.812 212.548C207.067 217 207.078 221.545 207.844 225.993Z" fill="#DB9653"/>
<path d="M186.438 323.798C186.299 324.046 186.101 324.255 185.861 324.406C185.621 324.557 185.348 324.646 185.065 324.664C184.791 324.691 184.514 324.672 184.247 324.607C183.439 324.331 182.727 323.829 182.196 323.161C179.229 319.891 178.043 315.51 177.112 311.276C174.307 298.397 173.164 285.212 173.711 272.043C174.259 258.892 178.346 246.321 175.297 233.227C175.134 232.557 174.962 231.878 174.831 231.192C174.486 229.82 174.441 228.389 174.7 226.999C174.845 226.371 175.124 225.783 175.518 225.274C176.201 224.423 177.114 223.786 178.148 223.437C179.182 223.088 180.294 223.042 181.354 223.304C181.514 223.357 181.67 223.423 181.82 223.5C182.276 223.731 182.677 224.056 182.995 224.455C183.314 224.855 183.543 225.318 183.667 225.813C183.909 226.686 184.057 227.582 184.108 228.486C184.19 231.209 184.001 233.933 183.544 236.619C182.686 243.55 180.651 250.277 179.278 257.118C178.629 260.317 178.136 263.534 177.798 266.771C177.281 271.515 177.082 276.288 177.202 281.059C177.574 295.023 180.626 308.786 186.192 321.599C186.388 321.927 186.511 322.293 186.553 322.672C186.596 323.051 186.556 323.435 186.438 323.798Z" fill="#DB9653"/>
<path d="M218.609 300.863C217.774 300.976 216.924 300.852 216.157 300.503C213.656 299.599 211.284 298.371 209.103 296.85C208.607 296.576 208.226 296.132 208.032 295.599C207.971 295.058 208.092 294.511 208.376 294.046L210.272 290.025C209.978 290.662 218.127 294.929 218.944 295.297C219.982 295.795 222.091 296.171 221.641 297.675C221.257 298.926 219.949 300.569 218.609 300.863Z" fill="#89182C"/>
<path d="M210.321 286.649C210.885 285.546 211.612 284.475 213.026 284.459C214.073 284.459 215.102 285.529 215.985 286.012C218.71 287.494 221.434 288.976 224.159 290.458C224.763 290.722 225.285 291.142 225.671 291.676C226.611 293.245 225.18 295.24 224.183 296.384C222.835 297.921 221.323 297.839 219.459 296.891C216.476 295.362 213.173 294.03 210.354 292.224C208.621 291.12 208.956 289.42 209.749 287.916C209.912 287.516 210.141 287.082 210.321 286.649Z" fill="#DB9653"/>
<path d="M167.638 267.343C167.638 267.343 168.276 272.844 168.627 281.655" stroke="#A54A00" stroke-width="0.5" stroke-linecap="round" stroke-linejoin="round"/>
<path d="M213.639 283.061L222.786 260.903C223.299 259.663 223.564 258.334 223.564 256.992C223.564 255.65 223.299 254.321 222.786 253.081L215.764 236.096" stroke="#A54A00" stroke-width="0.5" stroke-linecap="round" stroke-linejoin="round"/>
<path d="M233.607 277.944L226.071 290.082" stroke="#A54A00" stroke-width="0.5" stroke-linecap="round" stroke-linejoin="round"/>
<path d="M224.649 304.312C208.408 302.612 204.632 295.632 204.632 295.632L206.365 290.507C211.907 298.06 225.556 300.095 225.556 300.095L224.649 304.312Z" fill="#DB720C"/>
<g style="mix-blend-mode:overlay" opacity="0.3">
<path d="M224.649 304.312C208.408 302.612 204.632 295.632 204.632 295.632L206.365 290.507C211.907 298.06 225.556 300.095 225.556 300.095L224.649 304.312Z" fill="#1D1D1B"/>
</g>
<path d="M199.082 351.294C199.082 351.294 197.644 350.076 196.941 344.575C196.238 339.074 196.001 326.724 196.001 326.724" stroke="#1E4154" stroke-width="0.5" stroke-linecap="round" stroke-linejoin="round"/>
<path d="M180.046 180.581C178.601 181.727 177.503 183.253 176.875 184.987C176.463 186.129 176.36 187.36 176.575 188.555C176.79 189.751 177.317 190.868 178.101 191.795C175.134 193.103 172.159 196.021 171.341 199.233C170.966 200.819 171.044 202.477 171.565 204.021C172.087 205.564 173.032 206.93 174.292 207.963C171.7 208.776 169.466 210.455 167.966 212.72C164.533 217.942 165.914 225.626 172.183 227.914C174.958 228.836 177.98 228.666 180.635 227.44C183.214 226.224 185.458 224.398 187.173 222.119C189.184 219.556 190.639 216.602 191.445 213.446C192.251 210.289 192.392 206.999 191.857 203.786C191.383 201.072 190.427 198.457 189.838 195.759C189.25 193.062 189.021 190.193 190.042 187.586C190.672 185.951 191.751 184.537 192.494 182.951C193.238 181.366 193.59 179.486 192.748 177.949C191.742 176.102 189.895 176.184 188.179 176.821C185.915 177.639 183.561 178.235 181.468 179.535C180.968 179.847 180.493 180.197 180.046 180.581Z" fill="#2E2E2E"/>
<path d="M191.105 176.911C190.439 177.261 189.863 177.758 189.421 178.366C188.906 179.147 188.512 180.001 188.252 180.9C185.686 188.836 186.879 203.532 197.84 202.968C200.472 202.838 202.237 201.571 204.248 199.862C206.275 198.129 207.689 195.786 208.277 193.185C209.332 188.452 208.686 182.036 205.188 178.701C203.001 176.784 200.184 175.742 197.276 175.775C195.429 175.759 192.977 175.897 191.105 176.911Z" fill="#F8CF9B"/>
<path d="M187.647 205.984C188.007 208.183 188.816 210.251 190.614 211.46C191.743 212.129 193.009 212.531 194.317 212.637C196.715 212.972 199.139 213.087 201.559 212.981C201.895 213.011 202.235 212.964 202.55 212.844C202.866 212.724 203.15 212.533 203.381 212.286C203.663 211.764 203.771 211.166 203.692 210.578L203.471 204.595C203.471 203.352 203.806 201.227 202.294 200.843C201.678 200.754 201.05 200.804 200.455 200.99C199.977 201.045 199.502 201.127 199.033 201.235C198.535 201.301 198.028 201.35 197.521 201.366C196.536 201.416 195.549 201.381 194.57 201.26C193.81 201.229 193.054 201.122 192.314 200.941C191.593 200.694 190.932 200.295 190.377 199.772C189.903 199.275 189.514 198.704 189.225 198.08C186.92 200.058 187.198 203.271 187.647 205.984Z" fill="#DDE3E1"/>
<path d="M216.091 190.855C216.582 191.288 217.097 191.673 217.554 192.089C220.489 194.615 219.246 199.388 216.925 201.898C218.541 202.612 220.071 203.506 221.486 204.562C224.592 207.096 226.194 210.815 223.938 214.493C223.481 215.228 222.894 215.873 222.205 216.398C221.69 216.798 220.832 217.043 220.464 217.55C221.862 218.882 222.99 220.648 222.81 222.667C222.508 226.018 218.372 227.653 215.593 228.306C211.743 229.214 207.419 229.426 203.815 227.579C198.911 225.062 197.137 218.637 201.706 214.828C202.196 214.428 202.785 214.011 202.809 213.357C202.762 212.862 202.552 212.396 202.213 212.033C200.85 210.077 200.313 207.663 200.717 205.314C200.926 204.148 201.368 203.036 202.017 202.045C202.597 201.138 204.371 200.034 204.109 198.898C204.003 198.448 203.218 197.819 203.006 197.263C202.739 196.588 202.627 195.862 202.679 195.138C202.817 193.667 203.464 192.291 204.509 191.248C205.327 190.43 206.831 190.103 207.452 189.204C208.359 187.88 206.512 183.622 209.757 184.3C210.852 184.636 211.876 185.167 212.781 185.869C213.991 186.744 213.868 187.888 214.579 189.073C214.995 189.737 215.505 190.337 216.091 190.855Z" fill="#2E2E2E"/>
<path d="M215.912 177.565C215.435 179.387 214.775 181.156 213.942 182.845C212.17 181.219 210.273 179.735 208.269 178.407C202.873 174.766 196.757 172.327 190.337 171.255C191.373 169.74 192.601 168.367 193.99 167.168C196.897 164.672 200.312 162.839 203.999 161.795C207.686 160.752 211.556 160.525 215.339 161.128C215.608 161.9 215.837 162.686 216.026 163.482C217.162 168.112 217.123 172.953 215.912 177.565Z" fill="#89182C"/>
<path d="M185.236 178.227C185.555 175.905 186.74 173.993 187.762 171.868C188.243 170.768 188.96 169.788 189.863 168.997C190.766 168.206 191.831 167.623 192.985 167.29C195.02 166.808 197.161 167.348 199.148 167.993C203.255 169.311 207.202 171.082 210.918 173.273C213.002 174.5 215.078 175.946 216.173 178.03C217.146 179.87 217.146 182.019 216.991 184.03C216.875 186.088 216.243 188.084 215.151 189.833C207.501 183.401 195.38 179.232 185.236 178.227Z" fill="#89182C"/>
<g style="mix-blend-mode:overlay" opacity="0.3">
<path d="M216.982 184.038C216.868 186.093 216.238 188.086 215.151 189.833C207.501 183.401 195.388 179.208 185.236 178.227C185.325 177.598 185.476 176.979 185.686 176.38C186.285 174.837 186.978 173.333 187.762 171.876C188.243 170.776 188.96 169.796 189.863 169.005C190.766 168.214 191.831 167.632 192.985 167.299C193.315 167.219 193.651 167.167 193.99 167.144C195.746 167.078 197.498 167.356 199.148 167.961C202.834 169.144 206.394 170.691 209.773 172.579C210.166 172.8 210.591 173.02 210.942 173.249C212.863 174.385 214.775 175.701 215.928 177.532C216.027 177.682 216.118 177.837 216.198 177.998C217.146 179.878 217.146 182.02 216.982 184.038Z" fill="#1D1D1B"/>
</g>
<g style="mix-blend-mode:overlay" opacity="0.3">
<path d="M216.982 184.038C216.868 186.093 216.238 188.086 215.151 189.833C207.501 183.401 195.388 179.207 185.236 178.227C185.325 177.598 185.476 176.979 185.686 176.379C186.077 176.435 186.461 176.534 186.83 176.674C190.893 178.274 195.137 179.372 199.466 179.943C201.28 180.233 203.129 180.233 204.943 179.943C206.158 179.704 207.299 179.177 208.269 178.406C208.739 178.039 209.143 177.594 209.463 177.091C209.892 176.432 210.145 175.674 210.197 174.89C210.248 174.105 210.097 173.32 209.757 172.611C209.64 172.379 209.495 172.162 209.324 171.966C211.18 171.394 212.803 170.24 213.952 168.673C215.1 167.107 215.713 165.211 215.699 163.269C215.812 163.324 215.922 163.387 216.026 163.457C217.166 168.095 217.127 172.945 215.912 177.565C216.011 177.714 216.101 177.87 216.181 178.031C217.146 179.878 217.146 182.019 216.982 184.038Z" fill="#1D1D1B"/>
</g>
<path d="M224.984 161.79C225.041 161.814 225.089 161.854 225.123 161.904C225.229 162.059 225.299 162.235 225.329 162.421C225.358 162.606 225.347 162.795 225.295 162.975C225.284 163.037 225.261 163.096 225.225 163.148C225.19 163.201 225.144 163.245 225.091 163.278C225.051 163.305 225.004 163.32 224.956 163.32C224.907 163.32 224.86 163.305 224.821 163.278C224.912 163.494 224.973 163.723 225.001 163.956C225.025 164.073 225.02 164.194 224.986 164.308C224.952 164.422 224.889 164.526 224.804 164.61C224.712 164.691 224.593 164.736 224.469 164.736C224.346 164.736 224.227 164.691 224.134 164.61C224.246 164.786 224.318 164.984 224.347 165.19C224.368 165.298 224.361 165.409 224.325 165.512C224.289 165.616 224.226 165.708 224.142 165.779C224.019 165.846 223.882 165.888 223.742 165.902C223.602 165.916 223.46 165.902 223.325 165.86C223.363 166.013 223.353 166.173 223.295 166.32C223.238 166.466 223.137 166.591 223.006 166.678C222.874 166.744 222.724 166.767 222.578 166.746C222.432 166.724 222.296 166.657 222.189 166.555C222.252 166.795 222.272 167.044 222.246 167.291C222.234 167.398 222.189 167.498 222.117 167.579C222.045 167.659 221.951 167.716 221.846 167.74C221.649 167.752 221.456 167.687 221.306 167.56C221.363 167.708 221.077 168.214 220.955 168.329C220.893 168.383 220.819 168.422 220.739 168.44C220.659 168.459 220.576 168.457 220.497 168.435C220.235 168.353 220.096 168.067 219.851 167.945C220.007 168.247 219.541 168.762 219.214 168.901C219.052 168.951 218.877 168.938 218.725 168.863C218.573 168.789 218.456 168.659 218.396 168.5C218.297 168.692 218.152 168.856 217.973 168.977C217.795 169.098 217.589 169.173 217.375 169.195C217.228 169.17 217.092 169.1 216.987 168.995C216.881 168.889 216.811 168.754 216.786 168.607C216.74 168.806 216.639 168.988 216.494 169.132C216.35 169.276 216.168 169.378 215.969 169.424C215.886 169.424 215.804 169.407 215.728 169.374C215.651 169.341 215.583 169.293 215.526 169.233C215.469 169.172 215.426 169.101 215.398 169.022C215.37 168.944 215.358 168.861 215.364 168.778C215.216 168.923 215.032 169.026 214.831 169.076C214.629 169.127 214.419 169.122 214.22 169.064C214.09 168.99 213.994 168.869 213.953 168.725C213.912 168.582 213.928 168.428 213.999 168.296C213.87 168.432 213.702 168.527 213.518 168.566C213.334 168.605 213.143 168.588 212.969 168.517C212.899 168.479 212.838 168.427 212.789 168.364C212.741 168.301 212.707 168.228 212.689 168.151C212.671 168.073 212.67 167.993 212.686 167.915C212.702 167.837 212.734 167.764 212.781 167.699C212.594 167.802 212.385 167.855 212.172 167.855C211.959 167.855 211.75 167.802 211.563 167.699C211.441 167.607 211.353 167.476 211.314 167.328C211.276 167.179 211.289 167.022 211.351 166.882C211.261 167.037 210.721 166.882 210.533 166.817C210.458 166.768 210.397 166.7 210.358 166.619C210.319 166.538 210.303 166.448 210.313 166.359C210.339 166.184 210.412 166.02 210.525 165.885C210.272 165.836 210.014 165.82 209.757 165.836C209.581 165.867 209.399 165.847 209.234 165.779C209.155 165.744 209.093 165.681 209.059 165.602C209.026 165.523 209.024 165.434 209.054 165.354C209.152 165.174 209.454 165.141 209.504 164.945C209.321 164.998 209.127 164.995 208.947 164.937C208.766 164.879 208.607 164.768 208.49 164.618C208.41 164.483 208.386 164.322 208.423 164.17C208.46 164.017 208.554 163.885 208.686 163.801C208.465 163.874 207.926 163.686 207.869 163.466C207.845 163.353 207.853 163.236 207.892 163.128C207.931 163.02 208 162.924 208.089 162.852C207.952 162.804 207.828 162.724 207.727 162.619C207.627 162.514 207.552 162.387 207.509 162.248C207.505 162.221 207.505 162.193 207.509 162.166C207.519 162.069 207.552 161.975 207.606 161.894C207.661 161.813 207.734 161.746 207.82 161.7C207.554 161.468 207.388 161.144 207.354 160.793C207.38 160.701 207.435 160.62 207.513 160.564C207.59 160.507 207.683 160.479 207.779 160.482C207.67 160.302 207.59 160.106 207.542 159.902C207.514 159.831 207.508 159.753 207.526 159.678C207.543 159.604 207.583 159.536 207.64 159.485C207.742 159.423 207.856 159.384 207.975 159.371C208.098 159.371 208.228 159.281 208.261 159.166C208.13 158.986 207.82 158.79 207.763 158.578C207.728 158.473 207.722 158.361 207.745 158.253C207.768 158.146 207.819 158.046 207.893 157.965C208.028 157.872 208.182 157.812 208.344 157.79C208.506 157.767 208.67 157.782 208.825 157.834C208.742 157.57 208.703 157.293 208.711 157.017C208.722 156.893 208.77 156.775 208.849 156.679C208.927 156.583 209.033 156.513 209.152 156.477C209.292 156.47 209.431 156.494 209.561 156.546C209.691 156.598 209.808 156.678 209.904 156.78V156.608C209.904 156.314 209.904 155.938 210.174 155.791C210.294 155.709 210.437 155.665 210.582 155.665C210.728 155.665 210.871 155.709 210.991 155.791C210.893 155.545 211.375 155.128 211.637 155.047C211.768 155.014 211.906 155.031 212.025 155.095C212.145 155.158 212.236 155.263 212.283 155.39C212.135 155.104 212.757 154.507 213.1 154.401C213.257 154.352 213.427 154.368 213.573 154.445C213.718 154.521 213.827 154.653 213.876 154.81C213.983 154.576 214.132 154.366 214.318 154.189C214.39 154.106 214.488 154.05 214.596 154.028C214.703 154.005 214.815 154.019 214.914 154.066C215.135 154.189 215.143 154.483 215.135 154.728C215.233 154.488 215.401 154.283 215.617 154.139C215.708 154.05 215.83 154 215.957 154C216.084 154 216.205 154.05 216.296 154.139C216.332 154.193 216.355 154.254 216.363 154.318C216.372 154.381 216.366 154.446 216.345 154.507C216.45 154.347 216.595 154.217 216.765 154.129C216.936 154.042 217.126 154 217.317 154.009C217.404 154.027 217.485 154.064 217.555 154.117C217.625 154.171 217.682 154.239 217.723 154.317C217.764 154.395 217.786 154.481 217.79 154.569C217.793 154.657 217.777 154.745 217.742 154.826C217.906 154.54 218.2 154.172 218.511 154.311C218.66 154.379 218.779 154.501 218.844 154.652C218.909 154.803 218.916 154.973 218.862 155.128C219.015 154.915 219.217 154.741 219.451 154.622C219.563 154.577 219.684 154.563 219.803 154.58C219.922 154.597 220.035 154.645 220.129 154.72C220.172 154.759 220.205 154.806 220.228 154.859C220.252 154.912 220.263 154.969 220.263 155.026C220.263 155.084 220.252 155.141 220.228 155.194C220.205 155.246 220.172 155.294 220.129 155.333C220.283 155.205 220.477 155.139 220.677 155.145H221.004C221.077 155.127 221.153 155.123 221.227 155.134C221.301 155.146 221.373 155.171 221.437 155.21C221.489 155.26 221.527 155.322 221.547 155.391C221.567 155.46 221.568 155.533 221.551 155.603C221.517 155.743 221.453 155.874 221.363 155.987C221.508 155.849 221.692 155.76 221.89 155.732C222.088 155.704 222.29 155.739 222.467 155.831C222.526 155.882 222.573 155.945 222.605 156.015C222.637 156.086 222.654 156.162 222.654 156.24C222.654 156.318 222.637 156.394 222.605 156.465C222.573 156.535 222.526 156.598 222.467 156.649C222.603 156.551 222.769 156.505 222.936 156.516C223.103 156.528 223.261 156.598 223.382 156.714C223.468 156.819 223.511 156.952 223.502 157.088C223.493 157.223 223.433 157.349 223.333 157.442C223.483 157.338 223.657 157.277 223.839 157.265C224.021 157.254 224.202 157.292 224.363 157.376C224.472 157.511 224.528 157.681 224.52 157.854C224.513 158.027 224.442 158.191 224.322 158.316C224.373 158.281 224.431 158.256 224.493 158.245C224.554 158.233 224.617 158.234 224.677 158.248C224.738 158.262 224.795 158.288 224.845 158.325C224.895 158.362 224.937 158.409 224.968 158.463C225.016 158.577 225.033 158.702 225.016 158.824C224.998 158.947 224.948 159.062 224.87 159.158C224.702 159.346 224.503 159.504 224.281 159.624C224.473 159.581 224.674 159.598 224.856 159.675C225.038 159.751 225.191 159.882 225.295 160.049C225.303 160.124 225.295 160.2 225.271 160.272C225.248 160.344 225.209 160.41 225.158 160.465C225.107 160.521 225.045 160.565 224.975 160.595C224.906 160.625 224.831 160.639 224.755 160.637C224.955 160.769 225.134 160.928 225.287 161.112C225.352 161.185 225.396 161.274 225.415 161.371C225.433 161.467 225.426 161.567 225.393 161.659C225.346 161.719 225.281 161.764 225.209 161.787C225.136 161.81 225.058 161.811 224.984 161.79Z" fill="#DDE3E1"/>
<g style="mix-blend-mode:overlay" opacity="0.5">
<path d="M224.984 161.79C225.041 161.814 225.089 161.854 225.123 161.904C225.229 162.059 225.299 162.235 225.329 162.42C225.358 162.606 225.347 162.795 225.295 162.975C225.284 163.037 225.261 163.096 225.225 163.148C225.19 163.2 225.144 163.244 225.091 163.277C225.051 163.305 225.004 163.32 224.956 163.32C224.908 163.32 224.86 163.305 224.821 163.277C224.912 163.494 224.973 163.722 225.001 163.956C225.025 164.073 225.02 164.194 224.986 164.308C224.952 164.422 224.889 164.526 224.805 164.61C224.712 164.691 224.593 164.736 224.469 164.736C224.346 164.736 224.227 164.691 224.134 164.61C224.246 164.786 224.318 164.984 224.347 165.19C224.368 165.297 224.361 165.409 224.325 165.512C224.289 165.616 224.226 165.708 224.142 165.779C224.019 165.846 223.882 165.888 223.742 165.902C223.602 165.916 223.46 165.902 223.325 165.86C223.363 166.013 223.353 166.173 223.296 166.32C223.238 166.466 223.137 166.591 223.006 166.678C222.874 166.744 222.725 166.767 222.578 166.745C222.432 166.723 222.296 166.657 222.189 166.555C222.253 166.795 222.272 167.044 222.246 167.291C222.234 167.398 222.189 167.498 222.117 167.579C222.045 167.659 221.951 167.716 221.846 167.74C221.649 167.751 221.456 167.687 221.306 167.56C221.363 167.707 221.077 168.214 220.955 168.329C220.893 168.383 220.819 168.422 220.739 168.44C220.659 168.459 220.576 168.457 220.497 168.435C220.235 168.353 220.097 168.067 219.851 167.945C220.007 168.247 219.541 168.762 219.214 168.901C219.052 168.951 218.877 168.938 218.725 168.863C218.573 168.789 218.456 168.659 218.396 168.5C218.297 168.692 218.152 168.856 217.973 168.977C217.795 169.098 217.589 169.173 217.375 169.195C217.228 169.17 217.092 169.1 216.987 168.995C216.881 168.889 216.811 168.754 216.786 168.607C216.74 168.805 216.639 168.987 216.494 169.132C216.35 169.276 216.168 169.377 215.969 169.424C215.886 169.424 215.804 169.407 215.728 169.374C215.651 169.341 215.583 169.293 215.526 169.233C215.469 169.172 215.426 169.1 215.398 169.022C215.37 168.944 215.358 168.861 215.364 168.778C215.216 168.923 215.032 169.026 214.831 169.076C214.63 169.126 214.419 169.122 214.22 169.064C214.09 168.99 213.994 168.869 213.953 168.725C213.912 168.582 213.928 168.428 213.999 168.296C213.87 168.432 213.702 168.526 213.518 168.566C213.334 168.605 213.143 168.588 212.969 168.517C212.899 168.479 212.838 168.427 212.789 168.364C212.741 168.301 212.707 168.228 212.689 168.151C212.671 168.073 212.67 167.993 212.686 167.915C212.702 167.837 212.734 167.764 212.781 167.699C212.595 167.802 212.385 167.855 212.172 167.855C211.959 167.855 211.75 167.802 211.563 167.699C211.441 167.607 211.353 167.476 211.314 167.328C211.276 167.179 211.289 167.022 211.351 166.882C211.261 167.037 210.721 166.882 210.533 166.817C210.458 166.768 210.397 166.7 210.358 166.619C210.319 166.538 210.303 166.448 210.313 166.359C210.339 166.184 210.412 166.02 210.525 165.885C210.272 165.836 210.014 165.819 209.757 165.836C209.581 165.867 209.399 165.847 209.234 165.779C209.155 165.744 209.093 165.681 209.059 165.602C209.026 165.523 209.024 165.434 209.054 165.353C209.152 165.174 209.455 165.141 209.504 164.945C209.321 164.998 209.127 164.995 208.947 164.937C208.766 164.879 208.607 164.768 208.49 164.618C208.41 164.483 208.386 164.322 208.423 164.17C208.46 164.017 208.554 163.885 208.686 163.801C208.466 163.874 207.926 163.686 207.869 163.465C207.845 163.353 207.853 163.236 207.892 163.128C207.931 163.019 208 162.924 208.09 162.852C207.952 162.804 207.828 162.724 207.728 162.619C207.627 162.514 207.552 162.387 207.509 162.248C207.505 162.22 207.505 162.193 207.509 162.166C208.877 162.627 210.215 163.173 211.514 163.801C213.746 164.7 216.418 164.92 218.535 163.572C219.33 163.037 219.994 162.33 220.478 161.504C220.962 160.678 221.253 159.753 221.331 158.798C221.426 157.524 221.201 156.245 220.677 155.079H221.004C221.077 155.061 221.153 155.058 221.227 155.069C221.301 155.08 221.373 155.106 221.437 155.145C221.489 155.194 221.527 155.257 221.547 155.326C221.567 155.394 221.568 155.467 221.551 155.537C221.518 155.677 221.453 155.808 221.363 155.921C221.508 155.783 221.692 155.694 221.89 155.666C222.088 155.638 222.29 155.673 222.467 155.766C222.526 155.817 222.573 155.879 222.605 155.95C222.637 156.02 222.654 156.097 222.654 156.175C222.654 156.252 222.637 156.329 222.605 156.399C222.573 156.47 222.526 156.533 222.467 156.583C222.603 156.486 222.769 156.439 222.936 156.451C223.104 156.463 223.261 156.533 223.382 156.649C223.468 156.753 223.511 156.887 223.502 157.022C223.493 157.157 223.433 157.284 223.333 157.376C223.483 157.272 223.658 157.211 223.839 157.2C224.021 157.188 224.202 157.227 224.363 157.311C224.472 157.445 224.528 157.615 224.52 157.788C224.513 157.961 224.442 158.126 224.322 158.251C224.374 158.215 224.432 158.191 224.493 158.179C224.554 158.167 224.617 158.169 224.677 158.182C224.738 158.196 224.795 158.222 224.845 158.26C224.895 158.297 224.937 158.344 224.968 158.398C225.017 158.512 225.033 158.636 225.016 158.759C224.998 158.881 224.948 158.997 224.87 159.093C224.702 159.281 224.503 159.438 224.281 159.558C224.474 159.515 224.674 159.533 224.856 159.609C225.038 159.685 225.191 159.816 225.295 159.983C225.303 160.059 225.295 160.135 225.272 160.206C225.248 160.278 225.209 160.344 225.158 160.4C225.107 160.455 225.045 160.5 224.976 160.529C224.906 160.559 224.831 160.574 224.755 160.572C224.955 160.703 225.134 160.863 225.287 161.046C225.352 161.119 225.396 161.209 225.415 161.305C225.434 161.402 225.426 161.501 225.393 161.594C225.355 161.665 225.294 161.723 225.221 161.758C225.147 161.794 225.064 161.805 224.984 161.79Z" fill="#1D1D1B"/>
</g>
</g>
<path d="M161.085 10C164.785 10.002 168.376 11.2483 171.284 13.5388C174.191 15.8293 176.246 19.0313 177.118 22.631C179.419 18.8476 182.893 15.9214 187.01 14.2989C191.126 12.6764 195.66 12.4466 199.92 13.6445C204.179 14.8425 207.93 17.4024 210.601 20.9338C213.272 24.4653 214.715 28.7744 214.712 33.204C214.712 33.802 214.673 34.3938 214.624 34.9795C215.162 34.9262 215.708 34.8975 216.26 34.8975C220.641 34.8975 224.842 36.6397 227.939 39.7409C231.036 42.842 232.776 47.0481 232.776 51.4338C232.776 55.8195 231.036 60.0255 227.939 63.1267C224.842 66.2278 220.641 67.97 216.26 67.97H141.544C139.111 67.9741 136.708 67.4402 134.506 66.4065C132.303 65.3728 130.356 63.8648 128.803 61.9904C127.251 60.1159 126.131 57.9211 125.523 55.563C124.916 53.2048 124.836 50.7415 125.29 48.3489C125.744 45.9564 126.72 43.6937 128.148 41.7226C129.577 39.7515 131.422 38.1206 133.553 36.9464C135.684 35.7723 138.048 35.0839 140.475 34.9304C142.903 34.777 145.334 35.1622 147.596 36.0587C145.849 33.5844 144.815 30.6769 144.608 27.6541C144.401 24.6313 145.028 21.6096 146.42 18.9194C147.813 16.2293 149.917 13.9744 152.504 12.4013C155.09 10.8282 158.059 9.99747 161.085 10Z" fill="#F6F8FD"/>
<path d="M190.116 31C193.815 31.0019 197.407 32.2479 200.314 34.538C203.222 36.8281 205.276 40.0296 206.149 43.629C208.45 39.8455 211.924 36.9194 216.04 35.2969C220.157 33.6744 224.691 33.4446 228.95 34.6425C233.21 35.8404 236.961 38.4003 239.632 41.9318C242.302 45.4632 243.746 49.7723 243.743 54.2019C243.743 54.8019 243.704 55.3917 243.653 55.9794C244.193 55.9262 244.739 55.8955 245.289 55.8955C249.669 55.8955 253.87 57.6377 256.968 60.7388C260.065 63.84 261.805 68.046 261.805 72.4317C261.805 76.8174 260.065 81.0235 256.968 84.1246C253.87 87.2258 249.669 88.968 245.289 88.968H170.574C168.139 88.9766 165.733 88.446 163.526 87.4142C161.32 86.3824 159.369 84.8749 157.813 82.9998C156.257 81.1246 155.134 78.9281 154.525 76.5676C153.916 74.2071 153.836 71.741 154.29 69.3458C154.745 66.9506 155.722 64.6857 157.153 62.7132C158.585 60.7407 160.434 59.1094 162.568 57.9362C164.703 56.763 167.07 56.0768 169.5 55.9269C171.931 55.7769 174.364 56.1669 176.627 57.0689C174.879 54.594 173.846 51.6855 173.639 48.6618C173.432 45.638 174.059 42.6156 175.453 39.9251C176.847 37.2347 178.953 34.9799 181.541 33.4075C184.129 31.8352 187.099 31.0058 190.126 31.0102L190.116 31Z" fill="#E9EFFF"/>
<path d="M45.0849 10C48.7846 10.002 52.3763 11.2483 55.2838 13.5388C58.1913 15.8293 60.2461 19.0313 61.1184 22.631C63.4193 18.8476 66.893 15.9214 71.0097 14.2989C75.1265 12.6764 79.6603 12.4466 83.9196 13.6445C88.179 14.8425 91.9301 17.4024 94.6008 20.9338C97.2716 24.4653 98.7153 28.7744 98.7119 33.204C98.7119 33.802 98.6731 34.3938 98.624 34.9795C99.1619 34.9262 99.708 34.8975 100.26 34.8975C104.641 34.8975 108.842 36.6397 111.939 39.7409C115.036 42.842 116.776 47.0481 116.776 51.4338C116.776 55.8195 115.036 60.0255 111.939 63.1267C108.842 66.2278 104.641 67.97 100.26 67.97H25.5437C23.1113 67.9741 20.7081 67.4402 18.5057 66.4065C16.3034 65.3728 14.3562 63.8648 12.8035 61.9904C11.2507 60.1159 10.1306 57.9211 9.5232 55.563C8.91583 53.2048 8.83618 50.7415 9.28994 48.3489C9.7437 45.9564 10.7197 43.6937 12.1481 41.7226C13.5766 39.7515 15.4222 38.1206 17.5532 36.9464C19.6842 35.7723 22.0479 35.0839 24.4754 34.9304C26.9029 34.777 29.3343 35.1622 31.5959 36.0587C29.849 33.5844 28.8154 30.6769 28.608 27.6541C28.4007 24.6313 29.0275 21.6096 30.42 18.9194C31.8125 16.2293 33.9171 13.9744 36.5035 12.4013C39.09 10.8282 42.0587 9.99747 45.0849 10Z" fill="#D3DFFE"/>
<path d="M93.1156 43C96.815 43.0019 100.407 44.2479 103.314 46.538C106.222 48.8281 108.276 52.0296 109.149 55.629C111.45 51.8455 114.924 48.9194 119.04 47.2969C123.157 45.6744 127.691 45.4446 131.95 46.6425C136.21 47.8404 139.961 50.4003 142.632 53.9318C145.302 57.4632 146.746 61.7723 146.743 66.2019C146.743 66.8019 146.704 67.3917 146.653 67.9794C147.193 67.9262 147.739 67.8955 148.289 67.8955C152.669 67.8955 156.87 69.6377 159.968 72.7388C163.065 75.84 164.805 80.046 164.805 84.4317C164.805 88.8174 163.065 93.0235 159.968 96.1246C156.87 99.2258 152.669 100.968 148.289 100.968H73.5744C71.1394 100.977 68.7326 100.446 66.5263 99.4142C64.3201 98.3824 62.3691 96.8749 60.8129 94.9998C59.2567 93.1246 58.1339 90.9281 57.5249 88.5676C56.9159 86.2071 56.8357 83.741 57.2902 81.3458C57.7446 78.9506 58.7224 76.6857 60.1535 74.7132C61.5846 72.7407 63.4336 71.1094 65.5682 69.9362C67.7027 68.763 70.07 68.0768 72.5004 67.9269C74.9308 67.7769 77.3643 68.1669 79.6266 69.0689C77.8792 66.594 76.8455 63.6855 76.6386 60.6618C76.4316 57.638 77.0593 54.6156 78.4531 51.9251C79.8468 49.2347 81.9529 46.9799 84.5408 45.4075C87.1287 43.8352 90.0987 43.0058 93.1259 43.0102L93.1156 43Z" fill="#E9EFFF"/>
</svg>
